<?xml version="1.0" encoding="UTF-8"?>
<svg width="28.799" height="28.8" version="1.1" viewBox="4000.2 3423.5 29.999 30" xmlns="http://www.w3.org/2000/svg"><title>Smooth Tracks</title><defs id="f"><mask id="c" x="4010.2" y="3430.5" width="47.8" height="44" maskUnits="userSpaceOnUse"><path d="m4023 3467.5h-0.1528l-0.1544-0.012-0.1558-0.02-0.1501-0.028-0.151-0.036-0.1496-0.044-0.1449-0.051-0.1458-0.06-0.1375-0.064-0.1376-0.073-0.1336-0.081-0.1275-0.086-0.1235-0.093-0.1202-0.1007-0.1124-0.1043-0.1081-0.1115-0.1017-0.1162-0.096-0.1216-0.089-0.1261-0.084-0.1329-0.075-0.1329-0.069-0.1383-0.062-0.1438-0.055-0.1456-0.046-0.1453-0.04-0.1528-0.031-0.1493-0.023-0.1526-0.015-0.1569-0.01-0.1519-7e-4 -0.07v-24.151l0.012-0.1544 0.02-0.1558 0.028-0.1501 0.036-0.151 0.044-0.1496 0.051-0.1449 0.059-0.1458 0.064-0.1375 0.073-0.1376 0.081-0.1336 0.086-0.1275 0.093-0.1235 0.1007-0.1202 0.1043-0.1124 0.1115-0.1081 0.1162-0.1017 0.1216-0.096 0.1261-0.089 0.1329-0.084 0.1329-0.075 0.1383-0.069 0.1438-0.062 0.1456-0.054 0.1453-0.046 0.1528-0.04 0.1493-0.031 0.1526-0.023 0.1569-0.015 0.1519-0.01 0.07-7e-4h24.151l0.1544 0.012 0.1558 0.02 0.1501 0.028 0.151 0.036 0.1496 0.044 0.1449 0.051 0.1458 0.059 0.1375 0.064 0.1376 0.073 0.1336 0.081 0.1275 0.086 0.1235 0.093 0.1202 0.1007 0.1124 0.1043 0.1081 0.1115 0.1017 0.1162 0.096 0.1216 0.089 0.1261 0.084 0.1329 0.075 0.1329 0.069 0.1383 0.062 0.1438 0.054 0.1456 0.046 0.1453 0.04 0.1528 0.031 0.1493 0.023 0.1526 0.015 0.1569 0.01 0.1519 7e-4 0.07v24.151l-0.012 0.1544-0.02 0.1558-0.028 0.1501-0.036 0.151-0.044 0.1496-0.051 0.1449-0.059 0.1458-0.064 0.1375-0.073 0.1376-0.081 0.1336-0.086 0.1275-0.093 0.1235-0.1007 0.1202-0.1043 0.1124-0.1115 0.1081-0.1162 0.1017-0.1216 0.096-0.1261 0.089-0.1329 0.084-0.1329 0.075-0.1383 0.069-0.1438 0.062-0.1456 0.055-0.1453 0.046-0.1528 0.04-0.1493 0.031-0.1526 0.023-0.1569 0.015-0.1519 0.01-0.07 7e-4z" fill="#fff"/><circle cx="4039" cy="3455.5" r="1.8" stroke-width="0"/><circle cx="4031" cy="3449.5" r="1.8" stroke-width="0"/><circle cx="4044" cy="3441" r=".6" stroke-width="0"/><circle cx="4044.5" cy="3450" r=".6" stroke-width="0"/><circle cx="4024" cy="3453" r=".6" stroke-width="0"/><circle cx="4026" cy="3456" r=".6" stroke-width="0"/><circle cx="4025.5" cy="3462" r=".6" stroke-width="0"/></mask><mask id="b" x="4010.2" y="3430.5" width="47.8" height="44" maskUnits="userSpaceOnUse"><path d="m4023 3467.5h-0.1528l-0.1544-0.012-0.1558-0.02-0.1501-0.028-0.151-0.036-0.1496-0.044-0.1449-0.051-0.1458-0.06-0.1375-0.064-0.1376-0.073-0.1336-0.081-0.1275-0.086-0.1235-0.093-0.1202-0.1007-0.1124-0.1043-0.1081-0.1115-0.1017-0.1162-0.096-0.1216-0.089-0.1261-0.084-0.1329-0.075-0.1329-0.069-0.1383-0.062-0.1438-0.055-0.1456-0.046-0.1453-0.04-0.1528-0.031-0.1493-0.023-0.1526-0.015-0.1569-0.01-0.1519-7e-4 -0.07v-24.151l0.012-0.1544 0.02-0.1558 0.028-0.1501 0.036-0.151 0.044-0.1496 0.051-0.1449 0.059-0.1458 0.064-0.1375 0.073-0.1376 0.081-0.1336 0.086-0.1275 0.093-0.1235 0.1007-0.1202 0.1043-0.1124 0.1115-0.1081 0.1162-0.1017 0.1216-0.096 0.1261-0.089 0.1329-0.084 0.1329-0.075 0.1383-0.069 0.1438-0.062 0.1456-0.054 0.1453-0.046 0.1528-0.04 0.1493-0.031 0.1526-0.023 0.1569-0.015 0.1519-0.01 0.07-7e-4h24.151l0.1544 0.012 0.1558 0.02 0.1501 0.028 0.151 0.036 0.1496 0.044 0.1449 0.051 0.1458 0.059 0.1375 0.064 0.1376 0.073 0.1336 0.081 0.1275 0.086 0.1235 0.093 0.1202 0.1007 0.1124 0.1043 0.1081 0.1115 0.1017 0.1162 0.096 0.1216 0.089 0.1261 0.084 0.1329 0.075 0.1329 0.069 0.1383 0.062 0.1438 0.054 0.1456 0.046 0.1453 0.04 0.1528 0.031 0.1493 0.023 0.1526 0.015 0.1569 0.01 0.1519 7e-4 0.07v24.151l-0.012 0.1544-0.02 0.1558-0.028 0.1501-0.036 0.151-0.044 0.1496-0.051 0.1449-0.059 0.1458-0.064 0.1375-0.073 0.1376-0.081 0.1336-0.086 0.1275-0.093 0.1235-0.1007 0.1202-0.1043 0.1124-0.1115 0.1081-0.1162 0.1017-0.1216 0.096-0.1261 0.089-0.1329 0.084-0.1329 0.075-0.1383 0.069-0.1438 0.062-0.1456 0.055-0.1453 0.046-0.1528 0.04-0.1493 0.031-0.1526 0.023-0.1569 0.015-0.1519 0.01-0.07 7e-4z" fill="#fff"/><circle cx="4039" cy="3455.5" r="3.4" stroke-width="0" c_etype="pad_outer"/><circle cx="4031" cy="3449.5" r="3.4" stroke-width="0" c_etype="pad_outer"/></mask><mask id="a" x="4010.2" y="3430.5" width="47.8" height="44" maskUnits="userSpaceOnUse"><path d="m4023 3467.5h-0.1528l-0.1544-0.012-0.1558-0.02-0.1501-0.028-0.151-0.036-0.1496-0.044-0.1449-0.051-0.1458-0.06-0.1375-0.064-0.1376-0.073-0.1336-0.081-0.1275-0.086-0.1235-0.093-0.1202-0.1007-0.1124-0.1043-0.1081-0.1115-0.1017-0.1162-0.096-0.1216-0.089-0.1261-0.084-0.1329-0.075-0.1329-0.069-0.1383-0.062-0.1438-0.055-0.1456-0.046-0.1453-0.04-0.1528-0.031-0.1493-0.023-0.1526-0.015-0.1569-0.01-0.1519-7e-4 -0.07v-24.151l0.012-0.1544 0.02-0.1558 0.028-0.1501 0.036-0.151 0.044-0.1496 0.051-0.1449 0.059-0.1458 0.064-0.1375 0.073-0.1376 0.081-0.1336 0.086-0.1275 0.093-0.1235 0.1007-0.1202 0.1043-0.1124 0.1115-0.1081 0.1162-0.1017 0.1216-0.096 0.1261-0.089 0.1329-0.084 0.1329-0.075 0.1383-0.069 0.1438-0.062 0.1456-0.054 0.1453-0.046 0.1528-0.04 0.1493-0.031 0.1526-0.023 0.1569-0.015 0.1519-0.01 0.07-7e-4h24.151l0.1544 0.012 0.1558 0.02 0.1501 0.028 0.151 0.036 0.1496 0.044 0.1449 0.051 0.1458 0.059 0.1375 0.064 0.1376 0.073 0.1336 0.081 0.1275 0.086 0.1235 0.093 0.1202 0.1007 0.1124 0.1043 0.1081 0.1115 0.1017 0.1162 0.096 0.1216 0.089 0.1261 0.084 0.1329 0.075 0.1329 0.069 0.1383 0.062 0.1438 0.054 0.1456 0.046 0.1453 0.04 0.1528 0.031 0.1493 0.023 0.1526 0.015 0.1569 0.01 0.1519 7e-4 0.07v24.151l-0.012 0.1544-0.02 0.1558-0.028 0.1501-0.036 0.151-0.044 0.1496-0.051 0.1449-0.059 0.1458-0.064 0.1375-0.073 0.1376-0.081 0.1336-0.086 0.1275-0.093 0.1235-0.1007 0.1202-0.1043 0.1124-0.1115 0.1081-0.1162 0.1017-0.1216 0.096-0.1261 0.089-0.1329 0.084-0.1329 0.075-0.1383 0.069-0.1438 0.062-0.1456 0.055-0.1453 0.046-0.1528 0.04-0.1493 0.031-0.1526 0.023-0.1569 0.015-0.1519 0.01-0.07 7e-4z" fill="#fff"/><circle cx="4039" cy="3455.5" r="3.4" stroke-width="0" c_etype="pad_outer"/><circle cx="4031" cy="3449.5" r="3.4" stroke-width="0" c_etype="pad_outer"/></mask><mask id="e" x="4010.2" y="3430.5" width="47.8" height="44" maskUnits="userSpaceOnUse"><path d="m4023 3467.5h-0.1528l-0.1544-0.012-0.1558-0.02-0.1501-0.028-0.151-0.036-0.1496-0.044-0.1449-0.051-0.1458-0.06-0.1375-0.064-0.1376-0.073-0.1336-0.081-0.1275-0.086-0.1235-0.093-0.1202-0.1007-0.1124-0.1043-0.1081-0.1115-0.1017-0.1162-0.096-0.1216-0.089-0.1261-0.084-0.1329-0.075-0.1329-0.069-0.1383-0.062-0.1438-0.055-0.1456-0.046-0.1453-0.04-0.1528-0.031-0.1493-0.023-0.1526-0.015-0.1569-0.01-0.1519-7e-4 -0.07v-24.151l0.012-0.1544 0.02-0.1558 0.028-0.1501 0.036-0.151 0.044-0.1496 0.051-0.1449 0.059-0.1458 0.064-0.1375 0.073-0.1376 0.081-0.1336 0.086-0.1275 0.093-0.1235 0.1007-0.1202 0.1043-0.1124 0.1115-0.1081 0.1162-0.1017 0.1216-0.096 0.1261-0.089 0.1329-0.084 0.1329-0.075 0.1383-0.069 0.1438-0.062 0.1456-0.054 0.1453-0.046 0.1528-0.04 0.1493-0.031 0.1526-0.023 0.1569-0.015 0.1519-0.01 0.07-7e-4h24.151l0.1544 0.012 0.1558 0.02 0.1501 0.028 0.151 0.036 0.1496 0.044 0.1449 0.051 0.1458 0.059 0.1375 0.064 0.1376 0.073 0.1336 0.081 0.1275 0.086 0.1235 0.093 0.1202 0.1007 0.1124 0.1043 0.1081 0.1115 0.1017 0.1162 0.096 0.1216 0.089 0.1261 0.084 0.1329 0.075 0.1329 0.069 0.1383 0.062 0.1438 0.054 0.1456 0.046 0.1453 0.04 0.1528 0.031 0.1493 0.023 0.1526 0.015 0.1569 0.01 0.1519 7e-4 0.07v24.151l-0.012 0.1544-0.02 0.1558-0.028 0.1501-0.036 0.151-0.044 0.1496-0.051 0.1449-0.059 0.1458-0.064 0.1375-0.073 0.1376-0.081 0.1336-0.086 0.1275-0.093 0.1235-0.1007 0.1202-0.1043 0.1124-0.1115 0.1081-0.1162 0.1017-0.1216 0.096-0.1261 0.089-0.1329 0.084-0.1329 0.075-0.1383 0.069-0.1438 0.062-0.1456 0.055-0.1453 0.046-0.1528 0.04-0.1493 0.031-0.1526 0.023-0.1569 0.015-0.1519 0.01-0.07 7e-4z" fill="#fff"/><circle cx="4039" cy="3455.5" r="3.4" stroke-width="0" c_etype="pad_outer"/><circle cx="4031" cy="3449.5" r="3.4" stroke-width="0" c_etype="pad_outer"/></mask><mask id="d" x="4010.2" y="3430.5" width="47.8" height="44" maskUnits="userSpaceOnUse"><path d="m4023 3467.5h-0.1528l-0.1544-0.012-0.1558-0.02-0.1501-0.028-0.151-0.036-0.1496-0.044-0.1449-0.051-0.1458-0.06-0.1375-0.064-0.1376-0.073-0.1336-0.081-0.1275-0.086-0.1235-0.093-0.1202-0.1007-0.1124-0.1043-0.1081-0.1115-0.1017-0.1162-0.096-0.1216-0.089-0.1261-0.084-0.1329-0.075-0.1329-0.069-0.1383-0.062-0.1438-0.055-0.1456-0.046-0.1453-0.04-0.1528-0.031-0.1493-0.023-0.1526-0.015-0.1569-0.01-0.1519-7e-4 -0.07v-24.151l0.012-0.1544 0.02-0.1558 0.028-0.1501 0.036-0.151 0.044-0.1496 0.051-0.1449 0.059-0.1458 0.064-0.1375 0.073-0.1376 0.081-0.1336 0.086-0.1275 0.093-0.1235 0.1007-0.1202 0.1043-0.1124 0.1115-0.1081 0.1162-0.1017 0.1216-0.096 0.1261-0.089 0.1329-0.084 0.1329-0.075 0.1383-0.069 0.1438-0.062 0.1456-0.054 0.1453-0.046 0.1528-0.04 0.1493-0.031 0.1526-0.023 0.1569-0.015 0.1519-0.01 0.07-7e-4h24.151l0.1544 0.012 0.1558 0.02 0.1501 0.028 0.151 0.036 0.1496 0.044 0.1449 0.051 0.1458 0.059 0.1375 0.064 0.1376 0.073 0.1336 0.081 0.1275 0.086 0.1235 0.093 0.1202 0.1007 0.1124 0.1043 0.1081 0.1115 0.1017 0.1162 0.096 0.1216 0.089 0.1261 0.084 0.1329 0.075 0.1329 0.069 0.1383 0.062 0.1438 0.054 0.1456 0.046 0.1453 0.04 0.1528 0.031 0.1493 0.023 0.1526 0.015 0.1569 0.01 0.1519 7e-4 0.07v24.151l-0.012 0.1544-0.02 0.1558-0.028 0.1501-0.036 0.151-0.044 0.1496-0.051 0.1449-0.059 0.1458-0.064 0.1375-0.073 0.1376-0.081 0.1336-0.086 0.1275-0.093 0.1235-0.1007 0.1202-0.1043 0.1124-0.1115 0.1081-0.1162 0.1017-0.1216 0.096-0.1261 0.089-0.1329 0.084-0.1329 0.075-0.1383 0.069-0.1438 0.062-0.1456 0.055-0.1453 0.046-0.1528 0.04-0.1493 0.031-0.1526 0.023-0.1569 0.015-0.1519 0.01-0.07 7e-4z" fill="#fff"/><circle cx="4039" cy="3455.5" r="3.4" stroke-width="0" c_etype="pad_outer"/><circle cx="4031" cy="3449.5" r="3.4" stroke-width="0" c_etype="pad_outer"/></mask></defs><g class="photoview" transform="translate(-19.798 -14)" mask="url(#c)"><g id="g" class="shapeBox"><path id="h" d="m4023 3467.5h-0.1528l-0.1544-0.012-0.1558-0.02-0.1501-0.028-0.151-0.036-0.1496-0.044-0.1449-0.051-0.1458-0.06-0.1375-0.064-0.1376-0.073-0.1336-0.081-0.1275-0.086-0.1235-0.093-0.1202-0.1007-0.1124-0.1043-0.1081-0.1115-0.1017-0.1162-0.096-0.1216-0.089-0.1261-0.084-0.1329-0.075-0.1329-0.069-0.1383-0.062-0.1438-0.055-0.1456-0.046-0.1453-0.04-0.1528-0.031-0.1493-0.023-0.1526-0.015-0.1569-0.01-0.1519-7e-4 -0.07v-24.151l0.012-0.1544 0.02-0.1558 0.028-0.1501 0.036-0.151 0.044-0.1496 0.051-0.1449 0.059-0.1458 0.064-0.1375 0.073-0.1376 0.081-0.1336 0.086-0.1275 0.093-0.1235 0.1007-0.1202 0.1043-0.1124 0.1115-0.1081 0.1162-0.1017 0.1216-0.096 0.1261-0.089 0.1329-0.084 0.1329-0.075 0.1383-0.069 0.1438-0.062 0.1456-0.054 0.1453-0.046 0.1528-0.04 0.1493-0.031 0.1526-0.023 0.1569-0.015 0.1519-0.01 0.07-7e-4h24.151l0.1544 0.012 0.1558 0.02 0.1501 0.028 0.151 0.036 0.1496 0.044 0.1449 0.051 0.1458 0.059 0.1375 0.064 0.1376 0.073 0.1336 0.081 0.1275 0.086 0.1235 0.093 0.1202 0.1007 0.1124 0.1043 0.1081 0.1115 0.1017 0.1162 0.096 0.1216 0.089 0.1261 0.084 0.1329 0.075 0.1329 0.069 0.1383 0.062 0.1438 0.054 0.1456 0.046 0.1453 0.04 0.1528 0.031 0.1493 0.023 0.1526 0.015 0.1569 0.01 0.1519 7e-4 0.07v24.151l-0.012 0.1544-0.02 0.1558-0.028 0.1501-0.036 0.151-0.044 0.1496-0.051 0.1449-0.059 0.1458-0.064 0.1375-0.073 0.1376-0.081 0.1336-0.086 0.1275-0.093 0.1235-0.1007 0.1202-0.1043 0.1124-0.1115 0.1081-0.1162 0.1017-0.1216 0.096-0.1261 0.089-0.1329 0.084-0.1329 0.075-0.1383 0.069-0.1438 0.062-0.1456 0.055-0.1453 0.046-0.1528 0.04-0.1493 0.031-0.1526 0.023-0.1569 0.015-0.1519 0.01-0.07 7e-4z" fill="#80785f"/><path id="i" d="m4023 3467.5h-0.1528l-0.1544-0.012-0.1558-0.02-0.1501-0.028-0.151-0.036-0.1496-0.044-0.1449-0.051-0.1458-0.06-0.1375-0.064-0.1376-0.073-0.1336-0.081-0.1275-0.086-0.1235-0.093-0.1202-0.1007-0.1124-0.1043-0.1081-0.1115-0.1017-0.1162-0.096-0.1216-0.089-0.1261-0.084-0.1329-0.075-0.1329-0.069-0.1383-0.062-0.1438-0.055-0.1456-0.046-0.1453-0.04-0.1528-0.031-0.1493-0.023-0.1526-0.015-0.1569-0.01-0.1519-7e-4 -0.07v-24.151l0.012-0.1544 0.02-0.1558 0.028-0.1501 0.036-0.151 0.044-0.1496 0.051-0.1449 0.059-0.1458 0.064-0.1375 0.073-0.1376 0.081-0.1336 0.086-0.1275 0.093-0.1235 0.1007-0.1202 0.1043-0.1124 0.1115-0.1081 0.1162-0.1017 0.1216-0.096 0.1261-0.089 0.1329-0.084 0.1329-0.075 0.1383-0.069 0.1438-0.062 0.1456-0.054 0.1453-0.046 0.1528-0.04 0.1493-0.031 0.1526-0.023 0.1569-0.015 0.1519-0.01 0.07-7e-4h24.151l0.1544 0.012 0.1558 0.02 0.1501 0.028 0.151 0.036 0.1496 0.044 0.1449 0.051 0.1458 0.059 0.1375 0.064 0.1376 0.073 0.1336 0.081 0.1275 0.086 0.1235 0.093 0.1202 0.1007 0.1124 0.1043 0.1081 0.1115 0.1017 0.1162 0.096 0.1216 0.089 0.1261 0.084 0.1329 0.075 0.1329 0.069 0.1383 0.062 0.1438 0.054 0.1456 0.046 0.1453 0.04 0.1528 0.031 0.1493 0.023 0.1526 0.015 0.1569 0.01 0.1519 7e-4 0.07v24.151l-0.012 0.1544-0.02 0.1558-0.028 0.1501-0.036 0.151-0.044 0.1496-0.051 0.1449-0.059 0.1458-0.064 0.1375-0.073 0.1376-0.081 0.1336-0.086 0.1275-0.093 0.1235-0.1007 0.1202-0.1043 0.1124-0.1115 0.1081-0.1162 0.1017-0.1216 0.096-0.1261 0.089-0.1329 0.084-0.1329 0.075-0.1383 0.069-0.1438 0.062-0.1456 0.055-0.1453 0.046-0.1528 0.04-0.1493 0.031-0.1526 0.023-0.1569 0.015-0.1519 0.01-0.07 7e-4z" fill="#0b3b0b" mask="url(#b)"/><g id="j" fill="#dcaa14" stroke="#dcaa14"><path d="m4048.7 3443.3-0.1531 0.03-0.153-0.03-0.1298-0.087-1.5365-1.5367-0.1852-0.1986-0.1377-0.1788-0.052-0.088-0.1031-0.2478-0.2138-0.6682-0.1668-0.3577-0.2208-0.3153-0.2722-0.2722-0.1008-0.071-0.114-0.1226-0.054-0.1586 0.016-0.1667 0.083-0.1456 0.135-0.099 0.1638-0.035h1.4297l0.3635 0.034 0.3016 0.077 0.2859 0.1238 0.2629 0.1669 0.2336 0.206 0.1985 0.24 0.1585 0.2681 0.1146 0.2896 0.068 0.3039 0.025 0.3329v2.3354l-0.03 0.1531-0.087 0.1297-0.1297 0.087zm-27.18 20.5-0.1531 0.03-0.153-0.03-0.1298-0.087-0.087-0.1298-0.031-0.153v-1.8779l0.021-0.1286 0.061-0.1149 0.095-0.089 0.6717-0.4489 0.2591-0.2126 1.3984-1.3984 0.2126-0.259 0.1704-0.255 0.1103-0.1104 0.1442-0.06h0.1561l0.1442 0.06 0.1103 0.1104 0.06 0.1442 0.022 0.1083 0.097 0.3207 0.113 0.2727 0.03 0.1487-0.027 0.1493-0.081 0.1285-0.1229 0.089-0.2604 0.1214-0.3153 0.2208-0.2722 0.2722-0.2195 0.3134-0.1872 0.4141-0.1478 0.4624-0.1127 0.324-0.053 0.1028-0.1994 0.2701-0.1665 0.1757-1.0288 1.0288-0.1298 0.087zm2.5481 2.7316-0.1531-0.03-0.1297-0.087-0.087-0.1297-0.031-0.1531 0.031-0.1531 0.087-0.1297 1.0367-1.0365 0.1986-0.1852 0.1788-0.1377 0.1709-0.086 0.1532-0.032 0.1537 0.03 0.1306 0.086 0.087 0.1298 0.031 0.1534-0.03 0.1536-0.087 0.1302-0.1437 0.1437-0.2126 0.259-0.3518 0.5266-0.1603 0.3013-0.087 0.1297-0.1298 0.087-0.1531 0.03h-0.5029zm5.1814 0-0.1603-0.034-0.1334-0.095-0.084-0.1404-0.021-0.1625 0.046-0.1572 0.074-0.1386 0.2424-0.585 0.097-0.3207 0.1235-0.6211 0.033-0.3335v-1.8049l-0.033-0.3336-0.1235-0.621-0.097-0.3207-0.2424-0.5851-0.1578-0.2954-0.3518-0.5265-0.2126-0.2591-0.3287-0.3287-0.05-0.061-0.1646-0.2464-0.037-0.069-0.11-0.2654-0.027-0.1008-0.023-0.173v-0.13l0.046-0.1219 0.2375-0.4123 0.1296-0.2456 0.1049-0.2418 0.101-0.3771 0.034-0.3835-0.034-0.3835-0.1-0.3718-0.1627-0.3489-0.2208-0.3154-0.2722-0.2722-0.3154-0.2208-0.3489-0.1627-0.2904-0.078-0.1262-0.059-0.098-0.099-0.059-0.1263-0.012-0.1387 0.038-0.4251-0.034-0.3829-0.1-0.3718-0.1627-0.3489-0.2208-0.3154-0.2722-0.2722-0.3154-0.2208-0.3489-0.1627-0.3718-0.1-0.3835-0.034-0.3835 0.034-0.3718 0.1-0.3489 0.1627-0.3154 0.2208-0.2722 0.2722-0.2208 0.3154-0.1627 0.3489-0.1 0.3718-0.017 0.1898-0.052 0.1651-0.117 0.1277v0.025l0.1166 0.1285 0.051 0.1657 0.018 0.2224 0.032 0.2604 0.092 0.639 0.034 0.4515 0.01 0.3476-0.01 0.084-0.1051 0.5283-0.098 0.2559-0.087 0.1298-0.1297 0.087-0.1531 0.03-0.1531-0.03-0.1297-0.087-0.087-0.1298-0.03-0.1531v-2.6038l0.038-0.1693 0.1058-0.1375 0.064-0.033-0.064-0.033-0.1054-0.1374-0.037-0.169v-7.8614l0.03-0.1531 0.087-0.1298 0.1297-0.087 0.1531-0.03h10.979l0.5101 0.05 0.4639 0.094 0.4525 0.1392 0.4364 0.1829 0.4167 0.2249 0.3924 0.2645 0.3647 0.3018 0.3333 0.336 0.2988 0.3671 0.2614 0.3947 0.2214 0.4183 0.1794 0.4381 0.1355 0.4534 0.091 0.4648 0.044 0.4712-3e-4 0.3773-0.028 0.7014-0.07 0.5257-0.1029 0.4108-0.1311 0.3455-0.1658 0.333-0.2116 0.3652-0.2547 0.4201-0.3248 0.563-0.2902 0.5592-0.1981 0.4716-0.1417 0.5172-0.071 0.5308v0.5356l0.071 0.5307 0.1415 0.5166 0.2091 0.493 0.2729 0.4608 0.3319 0.4203 0.385 0.3723 0.4311 0.3177 0.4697 0.2574 0.4998 0.1925 0.5209 0.1241 0.5329 0.054 0.5352-0.018 0.5281-0.089 0.5116-0.1587 0.4858-0.2254 0.4514-0.2882 0.409-0.3458 0.3592-0.3972 0.3031-0.4415 0.2415-0.478 0.1757-0.5059 0.1067-0.5249 0.036-0.5343-0.036-0.5344-0.1067-0.5248-0.178-0.5128-0.096-0.2089-0.3246-0.6223-0.2793-0.482-0.2732-0.4514-0.2199-0.3814-0.1698-0.3477-0.1286-0.3528-0.097-0.4094-0.065-0.5182-0.025-0.68v-0.4711l-0.011-0.2167-0.064-0.6482-0.032-0.2144-0.1271-0.6388-0.053-0.2101-0.189-0.6233-0.073-0.2046-0.2493-0.6016-0.093-0.1957-0.307-0.5744-0.1116-0.1863-0.3619-0.5415-0.1291-0.1741-0.4132-0.5035-0.1456-0.1607-0.4605-0.4605-0.1607-0.1456-0.5034-0.4132-0.1742-0.1291-0.5415-0.3619-0.1863-0.1116-0.5744-0.307-0.1956-0.093-0.6017-0.2493-0.2046-0.073-0.6233-0.189-0.2101-0.053-0.6387-0.1271-0.2145-0.032-0.6481-0.064-0.2168-0.011h-11.025l-0.1414-0.026-0.1231-0.074-0.089-0.1129-0.043-0.137 0.01-0.1435 0.039-0.1397 0.1237-0.2859 0.1669-0.2629 0.206-0.2336 0.24-0.1985 0.2681-0.1585 0.2896-0.1147 0.304-0.068 0.3329-0.025h16.155l0.153 0.03 0.1298 0.087 1.7376 1.7378 0.1852 0.1987 0.1377 0.1787 0.052 0.088 0.1031 0.2478 0.2138 0.6682 0.1668 0.3577 0.2208 0.3153 0.2722 0.2722 0.3134 0.2195 0.4141 0.1872 0.4623 0.1478 0.3241 0.1127 0.1028 0.053 0.2701 0.1994 0.091 0.086 0.091 0.1298 0.034 0.1552-0.029 0.156-0.088 0.1323-0.1724 0.1724-0.2125 0.259-0.4427 0.6625-0.158 0.2955-0.305 0.7363-0.097 0.3209-0.1796 0.8982-0.1007 0.4461-0.089 0.2975-0.1099 0.2755-0.2721 0.6015-0.1017 0.3796-0.034 0.3835 0.034 0.3835 0.1 0.3719 0.1627 0.3489 0.2208 0.3153 0.2722 0.2722 0.3153 0.2208 0.3489 0.1627 0.3719 0.1 0.3835 0.034 0.3835-0.034 0.3718-0.1 0.3489-0.1627 0.3154-0.2208 0.2722-0.2722 0.2208-0.3153 0.1627-0.3489 0.1-0.3719 0.034-0.3835-0.034-0.3835-0.1009-0.3767-0.1083-0.2482-0.14-0.2595-0.2565-0.4176-0.048-0.115-0.01-0.1242 0.019-0.2144 0.077-0.3886 0.023-0.075 0.176-0.4248 0.037-0.069 0.2556-0.3824 0.105-0.116 0.1298-0.087 0.1531-0.03 0.1531 0.03 0.1297 0.087 0.6121 0.6121 0.259 0.2126 0.6717 0.4488 0.095 0.089 0.061 0.1149 0.021 0.1286v12.079l-0.03 0.1531-0.087 0.1297-0.1297 0.087-0.1531 0.03h-9.928l-0.5238-0.052-0.4771-0.097-0.4653-0.1433-0.4493-0.1881-0.4285-0.2312-0.4038-0.2722-0.3752-0.3104-1.2354-1.2354-0.3339-0.4068-0.2689-0.406-0.2278-0.4303-0.1846-0.4507-0.1396-0.4665-0.094-0.4933-0.029-0.6561 0.039-0.4779 0.085-0.3644 0.1225-0.3088 0.1682-0.3109 0.2257-0.3549 0.2721-0.4121 0.3563-0.5821 0.2918-0.5488 0.1021-0.22 0.1779-0.5123 0.1067-0.5248 0.036-0.5344-0.036-0.5343-0.1067-0.5249-0.1757-0.5059-0.2415-0.478-0.3031-0.4415-0.3593-0.3972-0.4089-0.3458-0.4515-0.2881-0.4858-0.2255-0.5115-0.1587-0.5281-0.089-0.5352-0.018-0.5329 0.054-0.521 0.1241-0.4997 0.1925-0.4697 0.2574-0.4311 0.3177-0.385 0.3723-0.3319 0.4203-0.273 0.4608-0.209 0.4931-0.1415 0.5165-0.071 0.5308v0.5355l0.071 0.5308 0.1414 0.5162 0.2176 0.5112 0.2671 0.5275 0.2881 0.5328 0.2471 0.4479 0.2039 0.3909 0.1662 0.3684 0.1388 0.3867 0.1201 0.4518 0.1045 0.5624 0.1322 1.0482 0.129 0.6488 0.053 0.2109 0.1931 0.6362 0.073 0.2037 0.2544 0.6143 0.093 0.1962 0.3135 0.5864 0.1114 0.1859 0.3694 0.5529 0.1292 0.1742 0.4219 0.514 0.1456 0.1607 1.3889 1.3889 0.1607 0.1457 0.514 0.4218 0.1743 0.1292 0.5528 0.3694 0.1859 0.1114 0.5864 0.3135 0.1962 0.093 0.6143 0.2544 0.2037 0.073 0.6363 0.1931 0.2108 0.053 0.6521 0.1297 0.2144 0.032 0.6618 0.065 0.2166 0.011h9.974l0.1413 0.026 0.1232 0.074 0.089 0.1129 0.043 0.137-0.01 0.1436-0.039 0.1397-0.1237 0.2858-0.1669 0.263-0.206 0.2336-0.24 0.1985-0.2681 0.1585-0.2896 0.1146-0.304 0.068-0.3329 0.025h-17.654zm19.45-23.232-0.1531 0.031-0.153-0.031-0.1298-0.087-1.5365-1.5367-0.1852-0.1986-0.1377-0.1788-0.052-0.088-0.1031-0.2478-0.2138-0.6682-0.1668-0.3577-0.2208-0.3153-0.2722-0.2722-0.1008-0.071-0.114-0.1226-0.054-0.1586 0.016-0.1667 0.083-0.1456 0.135-0.099 0.1638-0.035h1.4297l0.3635 0.034 0.3016 0.077 0.2859 0.1238 0.2629 0.1669 0.2336 0.206 0.1985 0.24 0.1585 0.2681 0.1146 0.2896 0.068 0.3039 0.025 0.3329v2.3354l-0.03 0.1531-0.087 0.1297-0.1297 0.087zm-27.18 20.5-0.1531 0.031-0.153-0.031-0.1298-0.087-0.087-0.1298-0.031-0.153v-1.8779l0.021-0.1286 0.061-0.1149 0.095-0.089 0.6717-0.4489 0.2591-0.2126 1.3984-1.3984 0.2126-0.259 0.1704-0.255 0.1103-0.1104 0.1442-0.06h0.1561l0.1442 0.06 0.1103 0.1104 0.06 0.1442 0.022 0.1083 0.097 0.3207 0.113 0.2727 0.03 0.1487-0.027 0.1493-0.081 0.1285-0.1229 0.089-0.2604 0.1214-0.3153 0.2208-0.2722 0.2722-0.2195 0.3134-0.1872 0.4141-0.1478 0.4624-0.1127 0.324-0.053 0.1028-0.1994 0.2701-0.1665 0.1757-1.0288 1.0288-0.1298 0.087zm2.5481 2.7316-0.1531-0.03-0.1297-0.087-0.087-0.1297-0.03-0.1531 0.03-0.1531 0.087-0.1297 1.0367-1.0365 0.1986-0.1852 0.1788-0.1377 0.1709-0.086 0.1532-0.032 0.1537 0.03 0.1306 0.086 0.087 0.1298 0.031 0.1534-0.03 0.1536-0.087 0.1302-0.1437 0.1437-0.2126 0.259-0.3518 0.5266-0.1603 0.3013-0.087 0.1297-0.1298 0.087-0.1531 0.03h-0.5029zm5.1814 0-0.1603-0.034-0.1334-0.095-0.084-0.1404-0.021-0.1625 0.046-0.1572 0.074-0.1386 0.2424-0.585 0.097-0.3207 0.1235-0.6211 0.033-0.3335v-1.8049l-0.033-0.3336-0.1235-0.621-0.097-0.3207-0.2424-0.5851-0.1578-0.2954-0.3518-0.5265-0.2126-0.2591-0.3287-0.3287-0.05-0.061-0.1646-0.2464-0.037-0.069-0.11-0.2654-0.027-0.1008-0.023-0.173v-0.13l0.046-0.1219 0.2375-0.4123 0.1296-0.2456 0.1049-0.2418 0.101-0.3771 0.034-0.3835-0.034-0.3835-0.1-0.3718-0.1627-0.3489-0.2208-0.3154-0.2722-0.2722-0.3154-0.2208-0.3489-0.1627-0.2904-0.078-0.1262-0.059-0.098-0.099-0.059-0.1263-0.012-0.1387 0.038-0.4251-0.034-0.3829-0.1-0.3718-0.1627-0.3489-0.2208-0.3154-0.2722-0.2722-0.3154-0.2208-0.3489-0.1627-0.3718-0.1-0.3835-0.034-0.3835 0.034-0.3718 0.1-0.3489 0.1627-0.3154 0.2208-0.2722 0.2722-0.2208 0.3154-0.1627 0.3489-0.1 0.3718-0.017 0.1898-0.052 0.1651-0.117 0.1277v0.025l0.1166 0.1285 0.051 0.1657 0.018 0.2224 0.032 0.2604 0.092 0.639 0.034 0.4515 0.01 0.3476-0.01 0.084-0.1051 0.5283-0.098 0.2559-0.087 0.1298-0.1297 0.087-0.1531 0.03-0.1531-0.03-0.1297-0.087-0.087-0.1298-0.03-0.1531v-2.6038l0.038-0.1693 0.1058-0.1375 0.063-0.033-0.064-0.033-0.1054-0.1374-0.038-0.169v-7.8614l0.03-0.1531 0.087-0.1298 0.1297-0.087 0.1531-0.03h10.979l0.5101 0.05 0.4639 0.094 0.4525 0.1392 0.4364 0.1829 0.4167 0.2249 0.3924 0.2645 0.3647 0.3018 0.3333 0.336 0.2988 0.3671 0.2614 0.3947 0.2214 0.4183 0.1794 0.4381 0.1355 0.4534 0.09 0.4648 0.044 0.4712-3e-4 0.3773-0.028 0.7014-0.07 0.5257-0.1029 0.4108-0.1311 0.3455-0.1658 0.333-0.2116 0.3652-0.2547 0.4201-0.3248 0.563-0.2902 0.5592-0.1981 0.4716-0.1417 0.5172-0.071 0.5308v0.5356l0.071 0.5307 0.1415 0.5166 0.2091 0.493 0.2729 0.4608 0.3319 0.4203 0.385 0.3723 0.4311 0.3177 0.4697 0.2574 0.4998 0.1925 0.5209 0.1241 0.5329 0.054 0.5352-0.018 0.5281-0.089 0.5116-0.1587 0.4858-0.2254 0.4514-0.2882 0.409-0.3458 0.3592-0.3972 0.3031-0.4415 0.2415-0.478 0.1757-0.5059 0.1067-0.5249 0.036-0.5343-0.036-0.5344-0.1067-0.5248-0.178-0.5128-0.096-0.2089-0.3246-0.6223-0.2793-0.482-0.2732-0.4514-0.2199-0.3814-0.1698-0.3477-0.1286-0.3528-0.097-0.4094-0.065-0.5182-0.025-0.68v-0.4711l-0.011-0.2167-0.064-0.6482-0.032-0.2144-0.1271-0.6388-0.053-0.2101-0.189-0.6233-0.073-0.2046-0.2493-0.6016-0.093-0.1957-0.307-0.5744-0.1116-0.1862-0.3619-0.5416-0.1291-0.1741-0.4132-0.5035-0.1456-0.1607-0.4605-0.4605-0.1607-0.1456-0.5034-0.4132-0.1742-0.1291-0.5415-0.3619-0.1863-0.1116-0.5744-0.307-0.1956-0.093-0.6017-0.2493-0.2046-0.073-0.6233-0.189-0.2101-0.053-0.6387-0.1271-0.2145-0.032-0.6481-0.064-0.2168-0.011h-11.025l-0.1414-0.026-0.1231-0.074-0.089-0.1129-0.043-0.137 0.01-0.1435 0.039-0.1397 0.1237-0.2859 0.1669-0.2629 0.206-0.2336 0.24-0.1985 0.2681-0.1585 0.2896-0.1147 0.304-0.068 0.3329-0.025h16.155l0.153 0.03 0.1298 0.087 1.7376 1.7378 0.1852 0.1987 0.1377 0.1787 0.051 0.088 0.1031 0.2478 0.2138 0.6682 0.1668 0.3577 0.2208 0.3153 0.2722 0.2722 0.3134 0.2195 0.4141 0.1872 0.4623 0.1478 0.3241 0.1127 0.1028 0.053 0.2701 0.1994 0.091 0.086 0.091 0.1298 0.034 0.1552-0.029 0.156-0.088 0.1323-0.1724 0.1724-0.2125 0.259-0.4427 0.6625-0.158 0.2955-0.305 0.7363-0.097 0.3209-0.1796 0.8982-0.1007 0.4461-0.089 0.2975-0.1099 0.2755-0.2721 0.6015-0.1017 0.3796-0.034 0.3835 0.034 0.3835 0.1 0.3719 0.1627 0.3489 0.2208 0.3153 0.2722 0.2722 0.3153 0.2208 0.3489 0.1627 0.3719 0.1 0.3835 0.034 0.3835-0.034 0.3718-0.1 0.3489-0.1627 0.3154-0.2208 0.2722-0.2722 0.2208-0.3153 0.1627-0.3489 0.1-0.3719 0.034-0.3835-0.034-0.3835-0.1009-0.3767-0.1083-0.2482-0.14-0.2595-0.2565-0.4176-0.048-0.115-0.01-0.1242 0.019-0.2144 0.077-0.3886 0.023-0.075 0.176-0.4248 0.037-0.069 0.2556-0.3824 0.105-0.116 0.1298-0.087 0.1531-0.03 0.1531 0.03 0.1297 0.087 0.6121 0.6121 0.259 0.2126 0.6717 0.4488 0.095 0.089 0.061 0.1149 0.021 0.1286v12.079l-0.03 0.1531-0.087 0.1297-0.1297 0.087-0.1531 0.031h-9.928l-0.5238-0.052-0.4771-0.097-0.4653-0.1433-0.4493-0.1881-0.4285-0.2312-0.4038-0.2722-0.3752-0.3104-1.2354-1.2354-0.3339-0.4068-0.2689-0.406-0.2278-0.4303-0.1846-0.4507-0.1396-0.4665-0.094-0.4933-0.029-0.6561 0.039-0.4779 0.085-0.3644 0.1225-0.3088 0.1682-0.3109 0.2257-0.3549 0.2721-0.4121 0.3563-0.5821 0.2918-0.5488 0.1021-0.22 0.1779-0.5123 0.1067-0.5248 0.036-0.5344-0.036-0.5343-0.1067-0.5249-0.1757-0.5059-0.2415-0.478-0.3031-0.4415-0.3593-0.3972-0.4089-0.3458-0.4515-0.2881-0.4858-0.2255-0.5115-0.1586-0.5281-0.089-0.5352-0.018-0.5329 0.054-0.521 0.1241-0.4997 0.1925-0.4697 0.2574-0.4311 0.3177-0.385 0.3723-0.3319 0.4203-0.273 0.4608-0.209 0.4931-0.1415 0.5165-0.071 0.5308v0.5355l0.071 0.5308 0.1414 0.5162 0.2176 0.5112 0.2671 0.5275 0.2881 0.5328 0.2471 0.4479 0.2039 0.3909 0.1662 0.3684 0.1388 0.3867 0.1201 0.4518 0.1045 0.5624 0.1322 1.0482 0.129 0.6488 0.053 0.2109 0.1931 0.6362 0.073 0.2037 0.2544 0.6143 0.093 0.1962 0.3135 0.5864 0.1114 0.1859 0.3694 0.5529 0.1292 0.1742 0.4219 0.514 0.1456 0.1607 1.3889 1.3889 0.1607 0.1457 0.514 0.4218 0.1743 0.1292 0.5528 0.3694 0.1859 0.1114 0.5864 0.3135 0.1962 0.093 0.6143 0.2544 0.2037 0.073 0.6363 0.1931 0.2108 0.053 0.6521 0.1297 0.2144 0.032 0.6618 0.065 0.2166 0.011h9.974l0.1413 0.026 0.1232 0.074 0.089 0.1129 0.043 0.1371-0.01 0.1435-0.039 0.1397-0.1237 0.2858-0.1669 0.263-0.206 0.2336-0.24 0.1985-0.2681 0.1585-0.2896 0.1146-0.304 0.068-0.3329 0.025h-17.654z" stroke-width="0"/><g fill="none"><g stroke-linecap="round"><polyline points="4014 3441.5 4014 3442.2 4014.3 3442.5 4032.5 3442.5 4033.2 3442.6 4033.8 3442.7 4034.5 3442.9 4035.1 3443.1 4035.7 3443.5 4036.2 3443.8 4036.8 3444.3 4037.2 3444.7 4037.7 3445.3 4038 3445.8 4038.4 3446.4 4038.6 3447 4038.8 3447.7 4038.9 3448.3 4039 3449 4039 3455.5" stroke-width="2" c_shapetype="line" layerid="1" locked="0" net=""/><polyline points="4058 3463.5 4058 3462.8 4057.7 3462.5 4038.5 3462.5 4037.9 3462.4 4037.2 3462.3 4036.5 3462.1 4035.9 3461.8 4035.3 3461.5 4034.7 3461.1 4034.2 3460.7 4032.8 3459.3 4032.4 3458.8 4032 3458.2 4031.7 3457.6 4031.4 3457 4031.2 3456.3 4031.1 3455.6 4031 3455 4031 3449.5" stroke-width="2" c_shapetype="line" layerid="1" locked="0" net=""/><polyline points="4038 3433.5 4038 3434.6 4038.3 3435.3 4044 3441" c_shapetype="line" layerid="1" locked="0" net=""/><polyline points="4044 3441 4047 3444 4049 3446 4049.7 3446.5 4050.6 3446.8 4051.5 3447 4055 3447" c_shapetype="line" layerid="1" locked="0" net=""/><polyline points="4044.5 3450 4044.5 3447.8 4044.7 3447 4045 3446.2 4045.4 3445.5 4047 3444" c_shapetype="line" layerid="1" locked="0" net=""/><polyline points="4030 3472.5 4027.4 3472.5 4026.7 3472.2 4026.3 3471.8 4026 3471.1 4026 3468.1 4026.1 3467.4 4026.4 3466.8 4026.8 3466.2 4027.2 3465.8 4027.6 3465.2 4027.9 3464.6 4028 3463.9 4028 3462.1 4027.9 3461.4 4027.6 3460.8 4027.2 3460.2 4026.8 3459.8 4026.4 3459.2 4026.1 3458.6 4026 3457.9 4026 3456" c_shapetype="line" layerid="1" locked="0" net=""/><polyline points="4017 3467.5 4018.9 3467.5 4019.6 3467.4 4020.2 3467.1 4020.8 3466.7 4025.5 3462" c_shapetype="line" layerid="1" locked="0" net=""/><polyline points="4024 3453 4023.5 3453 4023.5 3455.5 4023.3 3456.4 4023 3457.3 4022.5 3458 4021 3459.5 4020.3 3460 4019.4 3460.3 4018.5 3460.5 4010.5 3460.5 4010.2 3461.2 4023.5 3474.5" c_shapetype="line" layerid="1" locked="0" net=""/></g><path d="m4048 3445a1.5 1.5 0 0 0-2.1213 0" c_helper_type="arc2" c_shapetype="line" layerid="1" locked="0" net=""/><path d="m4045.9 3445a1.5 1.5 0 0 0 0-2.1213" c_helper_type="arc2" c_shapetype="line" layerid="1" locked="0" net=""/></g><g stroke-width="0"><path d="m4038 3449.5-0.028 0.7553-0.08 0.6233-0.1273 0.5228-0.1692 0.4538-0.2061 0.4163-0.2377 0.4104-0.2643 0.4359-0.2856 0.493-0.3018 0.5815 2.7 2.8077 2.7-2.8077-0.3018-0.5815-0.2856-0.493-0.2642-0.4359-0.2378-0.4104-0.2061-0.4163-0.1692-0.4538-0.1273-0.5228-0.08-0.6233-0.028-0.7553z" c_shapetype="line" c_targetpad="" c_targetwire="" c_teardrop="" layerid="1" locked="0" net="" type="solid"/><path d="m4032 3455.4-0.036-0.7355 0.044-0.6081 0.1132-0.5112 0.1717-0.4447 0.2194-0.4087 0.2564-0.4031 0.2825-0.428 0.2979-0.4833 0.3026-0.5691-2.7-2.8077-2.7 2.8077 0.3009 0.5945 0.2733 0.5041 0.246 0.4458 0.2195 0.4195 0.1935 0.4252 0.168 0.463 0.1431 0.5327 0.1188 0.6346 0.095 0.7683z" c_shapetype="line" c_targetpad="" c_targetwire="" c_teardrop="" layerid="1" locked="0" net="" type="solid"/><path d="m4041.9 3439.7 0.2056 0.2172 0.1595 0.1936 0.122 0.1775 0.093 0.1689 0.073 0.1679 0.062 0.1745 0.059 0.1885 0.064 0.21 0.079 0.2392 1.5578 0.03-0.03-1.5578-0.2392-0.079-0.21-0.064-0.1885-0.059-0.1745-0.062-0.1679-0.073-0.1689-0.093-0.1775-0.122-0.1936-0.1595-0.2172-0.2056z" c_shapetype="line" c_targetpad="" c_targetwire="" c_teardrop="" layerid="1" locked="0" net="" type="solid"/><path d="m4046.1 3442.3-0.2056-0.2172-0.1595-0.1936-0.122-0.1775-0.093-0.1689-0.073-0.1679-0.062-0.1745-0.059-0.1885-0.064-0.21-0.079-0.2392-1.5578-0.03 0.03 1.5578 0.2392 0.079 0.21 0.064 0.1885 0.059 0.1745 0.062 0.1679 0.073 0.1689 0.093 0.1775 0.122 0.1936 0.1595 0.2172 0.2056z" c_shapetype="line" c_targetpad="" c_targetwire="" c_teardrop="" layerid="1" locked="0" net="" type="solid"/><path d="m4044.1 3447.5-0.062 0.3094-0.055 0.2596-0.052 0.2214-0.053 0.1948-0.057 0.1801-0.066 0.1768-0.078 0.1854-0.094 0.2055-0.1134 0.2374 1.08 1.1231 1.08-1.1231-0.1131-0.2134-0.1123-0.1851-0.1061-0.1672-0.095-0.1598-0.078-0.1626-0.057-0.176-0.03-0.1996v-0.2336l0.04-0.278z" c_shapetype="line" c_targetpad="" c_targetwire="" c_teardrop="" layerid="1" locked="0" net="" type="solid"/><path d="m4026.6 3458.3-0.041-0.2756-0.01-0.2324 0.023-0.1993 0.049-0.1762 0.07-0.1632 0.087-0.1602 0.099-0.1673 0.1068-0.1844 0.1104-0.2116-1.08-1.1231-1.08 1.1231 0.1157 0.2381 0.099 0.2052 0.085 0.1843 0.074 0.1753 0.066 0.1784 0.061 0.1934 0.059 0.2205 0.06 0.2595 0.064 0.3106z" c_shapetype="line" c_targetpad="" c_targetwire="" c_teardrop="" layerid="1" locked="0" net="" type="solid"/><path d="m4024.2 3464.1 0.2172-0.2056 0.1936-0.1595 0.1775-0.122 0.1689-0.093 0.1679-0.073 0.1745-0.062 0.1885-0.059 0.21-0.064 0.2392-0.079 0.03-1.5578-1.5578 0.03-0.079 0.2392-0.064 0.21-0.059 0.1885-0.062 0.1745-0.073 0.1679-0.093 0.1689-0.122 0.1775-0.1595 0.1936-0.2056 0.2172z" c_shapetype="line" c_targetpad="" c_targetwire="" c_teardrop="" layerid="1" locked="0" net="" type="solid"/><path d="m4024 3455.3 0.01-0.2393 0.029-0.2009 0.048-0.1698 0.067-0.1455 0.086-0.1282 0.104-0.1182 0.1222-0.1149 0.1402-0.1188 0.1578-0.1298-0.5138-1.4709-1.4497 0.571 0.012 0.2883 0.021 0.2464 0.027 0.2185 0.031 0.2047 0.032 0.2049 0.029 0.2192 0.024 0.2474 0.017 0.2898 0.01 0.3461z" c_shapetype="line" c_targetpad="" c_targetwire="" c_teardrop="" layerid="1" locked="0" net="" type="solid"/></g><g c_etype="pinpart" c_height="6" c_origin="4039,3455.5" c_partid="part_pad" c_rotation="0" c_width="6" layerid="11" net=""><circle cx="4039" cy="3455.5" r="3" stroke-width="0" c_etype="pad_shell"/></g><g c_etype="pinpart" c_height="6" c_origin="4031,3449.5" c_partid="part_pad" c_rotation="0" c_width="6" layerid="11" net=""><circle cx="4031" cy="3449.5" r="3" stroke-width="0" c_etype="pad_shell"/></g><g c_etype="pinpart" c_origin="4044,3441" c_partid="part_via" c_rotation="undefined" layerid="11" net=""><circle cx="4044" cy="3441" r="1.2" stroke-width="0"/></g><g c_etype="pinpart" c_origin="4044.5,3450" c_partid="part_via" c_rotation="undefined" layerid="11" net=""><circle cx="4044.5" cy="3450" r="1.2" stroke-width="0"/></g><g c_etype="pinpart" c_origin="4024,3453" c_partid="part_via" c_rotation="undefined" layerid="11" net=""><circle cx="4024" cy="3453" r="1.2" stroke-width="0"/></g><g c_etype="pinpart" c_origin="4026,3456" c_partid="part_via" c_rotation="undefined" layerid="11" net=""><circle cx="4026" cy="3456" r="1.2" stroke-width="0"/></g><g c_etype="pinpart" c_origin="4025.5,3462" c_partid="part_via" c_rotation="undefined" layerid="11" net=""><circle cx="4025.5" cy="3462" r="1.2" stroke-width="0"/></g></g><g id="k" fill="#00be00" mask="url(#a)" stroke="#00be00"><path d="m4048.7 3443.3-0.1531 0.03-0.153-0.03-0.1298-0.087-1.5365-1.5367-0.1852-0.1986-0.1377-0.1788-0.052-0.088-0.1031-0.2478-0.2138-0.6682-0.1668-0.3577-0.2208-0.3153-0.2722-0.2722-0.1008-0.071-0.114-0.1226-0.054-0.1586 0.016-0.1667 0.083-0.1456 0.135-0.099 0.1638-0.035h1.4297l0.3635 0.034 0.3016 0.077 0.2859 0.1238 0.2629 0.1669 0.2336 0.206 0.1985 0.24 0.1585 0.2681 0.1146 0.2896 0.068 0.3039 0.025 0.3329v2.3354l-0.03 0.1531-0.087 0.1297-0.1297 0.087zm-27.18 20.5-0.1531 0.03-0.153-0.03-0.1298-0.087-0.087-0.1298-0.031-0.153v-1.8779l0.021-0.1286 0.061-0.1149 0.095-0.089 0.6717-0.4489 0.2591-0.2126 1.3984-1.3984 0.2126-0.259 0.1704-0.255 0.1103-0.1104 0.1442-0.06h0.1561l0.1442 0.06 0.1103 0.1104 0.06 0.1442 0.022 0.1083 0.097 0.3207 0.113 0.2727 0.03 0.1487-0.027 0.1493-0.081 0.1285-0.1229 0.089-0.2604 0.1214-0.3153 0.2208-0.2722 0.2722-0.2195 0.3134-0.1872 0.4141-0.1478 0.4624-0.1127 0.324-0.053 0.1028-0.1994 0.2701-0.1665 0.1757-1.0288 1.0288-0.1298 0.087zm2.5481 2.7316-0.1531-0.03-0.1297-0.087-0.087-0.1297-0.031-0.1531 0.031-0.1531 0.087-0.1297 1.0367-1.0365 0.1986-0.1852 0.1788-0.1377 0.1709-0.086 0.1532-0.032 0.1537 0.03 0.1306 0.086 0.087 0.1298 0.031 0.1534-0.03 0.1536-0.087 0.1302-0.1437 0.1437-0.2126 0.259-0.3518 0.5266-0.1603 0.3013-0.087 0.1297-0.1298 0.087-0.1531 0.03h-0.5029zm5.1814 0-0.1603-0.034-0.1334-0.095-0.084-0.1404-0.021-0.1625 0.046-0.1572 0.074-0.1386 0.2424-0.585 0.097-0.3207 0.1235-0.6211 0.033-0.3335v-1.8049l-0.033-0.3336-0.1235-0.621-0.097-0.3207-0.2424-0.5851-0.1578-0.2954-0.3518-0.5265-0.2126-0.2591-0.3287-0.3287-0.05-0.061-0.1646-0.2464-0.037-0.069-0.11-0.2654-0.027-0.1008-0.023-0.173v-0.13l0.046-0.1219 0.2375-0.4123 0.1296-0.2456 0.1049-0.2418 0.101-0.3771 0.034-0.3835-0.034-0.3835-0.1-0.3718-0.1627-0.3489-0.2208-0.3154-0.2722-0.2722-0.3154-0.2208-0.3489-0.1627-0.2904-0.078-0.1262-0.059-0.098-0.099-0.059-0.1263-0.012-0.1387 0.038-0.4251-0.034-0.3829-0.1-0.3718-0.1627-0.3489-0.2208-0.3154-0.2722-0.2722-0.3154-0.2208-0.3489-0.1627-0.3718-0.1-0.3835-0.034-0.3835 0.034-0.3718 0.1-0.3489 0.1627-0.3154 0.2208-0.2722 0.2722-0.2208 0.3154-0.1627 0.3489-0.1 0.3718-0.017 0.1898-0.052 0.1651-0.117 0.1277v0.025l0.1166 0.1285 0.051 0.1657 0.018 0.2224 0.032 0.2604 0.092 0.639 0.034 0.4515 0.01 0.3476-0.01 0.084-0.1051 0.5283-0.098 0.2559-0.087 0.1298-0.1297 0.087-0.1531 0.03-0.1531-0.03-0.1297-0.087-0.087-0.1298-0.03-0.1531v-2.6038l0.038-0.1693 0.1058-0.1375 0.064-0.033-0.064-0.033-0.1054-0.1374-0.037-0.169v-7.8614l0.03-0.1531 0.087-0.1298 0.1297-0.087 0.1531-0.03h10.979l0.5101 0.05 0.4639 0.094 0.4525 0.1392 0.4364 0.1829 0.4167 0.2249 0.3924 0.2645 0.3647 0.3018 0.3333 0.336 0.2988 0.3671 0.2614 0.3947 0.2214 0.4183 0.1794 0.4381 0.1355 0.4534 0.091 0.4648 0.044 0.4712-3e-4 0.3773-0.028 0.7014-0.07 0.5257-0.1029 0.4108-0.1311 0.3455-0.1658 0.333-0.2116 0.3652-0.2547 0.4201-0.3248 0.563-0.2902 0.5592-0.1981 0.4716-0.1417 0.5172-0.071 0.5308v0.5356l0.071 0.5307 0.1415 0.5166 0.2091 0.493 0.2729 0.4608 0.3319 0.4203 0.385 0.3723 0.4311 0.3177 0.4697 0.2574 0.4998 0.1925 0.5209 0.1241 0.5329 0.054 0.5352-0.018 0.5281-0.089 0.5116-0.1587 0.4858-0.2254 0.4514-0.2882 0.409-0.3458 0.3592-0.3972 0.3031-0.4415 0.2415-0.478 0.1757-0.5059 0.1067-0.5249 0.036-0.5343-0.036-0.5344-0.1067-0.5248-0.178-0.5128-0.096-0.2089-0.3246-0.6223-0.2793-0.482-0.2732-0.4514-0.2199-0.3814-0.1698-0.3477-0.1286-0.3528-0.097-0.4094-0.065-0.5182-0.025-0.68v-0.4711l-0.011-0.2167-0.064-0.6482-0.032-0.2144-0.1271-0.6388-0.053-0.2101-0.189-0.6233-0.073-0.2046-0.2493-0.6016-0.093-0.1957-0.307-0.5744-0.1116-0.1863-0.3619-0.5415-0.1291-0.1741-0.4132-0.5035-0.1456-0.1607-0.4605-0.4605-0.1607-0.1456-0.5034-0.4132-0.1742-0.1291-0.5415-0.3619-0.1863-0.1116-0.5744-0.307-0.1956-0.093-0.6017-0.2493-0.2046-0.073-0.6233-0.189-0.2101-0.053-0.6387-0.1271-0.2145-0.032-0.6481-0.064-0.2168-0.011h-11.025l-0.1414-0.026-0.1231-0.074-0.089-0.1129-0.043-0.137 0.01-0.1435 0.039-0.1397 0.1237-0.2859 0.1669-0.2629 0.206-0.2336 0.24-0.1985 0.2681-0.1585 0.2896-0.1147 0.304-0.068 0.3329-0.025h16.155l0.153 0.03 0.1298 0.087 1.7376 1.7378 0.1852 0.1987 0.1377 0.1787 0.052 0.088 0.1031 0.2478 0.2138 0.6682 0.1668 0.3577 0.2208 0.3153 0.2722 0.2722 0.3134 0.2195 0.4141 0.1872 0.4623 0.1478 0.3241 0.1127 0.1028 0.053 0.2701 0.1994 0.091 0.086 0.091 0.1298 0.034 0.1552-0.029 0.156-0.088 0.1323-0.1724 0.1724-0.2125 0.259-0.4427 0.6625-0.158 0.2955-0.305 0.7363-0.097 0.3209-0.1796 0.8982-0.1007 0.4461-0.089 0.2975-0.1099 0.2755-0.2721 0.6015-0.1017 0.3796-0.034 0.3835 0.034 0.3835 0.1 0.3719 0.1627 0.3489 0.2208 0.3153 0.2722 0.2722 0.3153 0.2208 0.3489 0.1627 0.3719 0.1 0.3835 0.034 0.3835-0.034 0.3718-0.1 0.3489-0.1627 0.3154-0.2208 0.2722-0.2722 0.2208-0.3153 0.1627-0.3489 0.1-0.3719 0.034-0.3835-0.034-0.3835-0.1009-0.3767-0.1083-0.2482-0.14-0.2595-0.2565-0.4176-0.048-0.115-0.01-0.1242 0.019-0.2144 0.077-0.3886 0.023-0.075 0.176-0.4248 0.037-0.069 0.2556-0.3824 0.105-0.116 0.1298-0.087 0.1531-0.03 0.1531 0.03 0.1297 0.087 0.6121 0.6121 0.259 0.2126 0.6717 0.4488 0.095 0.089 0.061 0.1149 0.021 0.1286v12.079l-0.03 0.1531-0.087 0.1297-0.1297 0.087-0.1531 0.03h-9.928l-0.5238-0.052-0.4771-0.097-0.4653-0.1433-0.4493-0.1881-0.4285-0.2312-0.4038-0.2722-0.3752-0.3104-1.2354-1.2354-0.3339-0.4068-0.2689-0.406-0.2278-0.4303-0.1846-0.4507-0.1396-0.4665-0.094-0.4933-0.029-0.6561 0.039-0.4779 0.085-0.3644 0.1225-0.3088 0.1682-0.3109 0.2257-0.3549 0.2721-0.4121 0.3563-0.5821 0.2918-0.5488 0.1021-0.22 0.1779-0.5123 0.1067-0.5248 0.036-0.5344-0.036-0.5343-0.1067-0.5249-0.1757-0.5059-0.2415-0.478-0.3031-0.4415-0.3593-0.3972-0.4089-0.3458-0.4515-0.2881-0.4858-0.2255-0.5115-0.1587-0.5281-0.089-0.5352-0.018-0.5329 0.054-0.521 0.1241-0.4997 0.1925-0.4697 0.2574-0.4311 0.3177-0.385 0.3723-0.3319 0.4203-0.273 0.4608-0.209 0.4931-0.1415 0.5165-0.071 0.5308v0.5355l0.071 0.5308 0.1414 0.5162 0.2176 0.5112 0.2671 0.5275 0.2881 0.5328 0.2471 0.4479 0.2039 0.3909 0.1662 0.3684 0.1388 0.3867 0.1201 0.4518 0.1045 0.5624 0.1322 1.0482 0.129 0.6488 0.053 0.2109 0.1931 0.6362 0.073 0.2037 0.2544 0.6143 0.093 0.1962 0.3135 0.5864 0.1114 0.1859 0.3694 0.5529 0.1292 0.1742 0.4219 0.514 0.1456 0.1607 1.3889 1.3889 0.1607 0.1457 0.514 0.4218 0.1743 0.1292 0.5528 0.3694 0.1859 0.1114 0.5864 0.3135 0.1962 0.093 0.6143 0.2544 0.2037 0.073 0.6363 0.1931 0.2108 0.053 0.6521 0.1297 0.2144 0.032 0.6618 0.065 0.2166 0.011h9.974l0.1413 0.026 0.1232 0.074 0.089 0.1129 0.043 0.137-0.01 0.1436-0.039 0.1397-0.1237 0.2858-0.1669 0.263-0.206 0.2336-0.24 0.1985-0.2681 0.1585-0.2896 0.1146-0.304 0.068-0.3329 0.025h-17.654zm19.45-23.232-0.1531 0.031-0.153-0.031-0.1298-0.087-1.5365-1.5367-0.1852-0.1986-0.1377-0.1788-0.052-0.088-0.1031-0.2478-0.2138-0.6682-0.1668-0.3577-0.2208-0.3153-0.2722-0.2722-0.1008-0.071-0.114-0.1226-0.054-0.1586 0.016-0.1667 0.083-0.1456 0.135-0.099 0.1638-0.035h1.4297l0.3635 0.034 0.3016 0.077 0.2859 0.1238 0.2629 0.1669 0.2336 0.206 0.1985 0.24 0.1585 0.2681 0.1146 0.2896 0.068 0.3039 0.025 0.3329v2.3354l-0.03 0.1531-0.087 0.1297-0.1297 0.087zm-27.18 20.5-0.1531 0.031-0.153-0.031-0.1298-0.087-0.087-0.1298-0.031-0.153v-1.8779l0.021-0.1286 0.061-0.1149 0.095-0.089 0.6717-0.4489 0.2591-0.2126 1.3984-1.3984 0.2126-0.259 0.1704-0.255 0.1103-0.1104 0.1442-0.06h0.1561l0.1442 0.06 0.1103 0.1104 0.06 0.1442 0.022 0.1083 0.097 0.3207 0.113 0.2727 0.03 0.1487-0.027 0.1493-0.081 0.1285-0.1229 0.089-0.2604 0.1214-0.3153 0.2208-0.2722 0.2722-0.2195 0.3134-0.1872 0.4141-0.1478 0.4624-0.1127 0.324-0.053 0.1028-0.1994 0.2701-0.1665 0.1757-1.0288 1.0288-0.1298 0.087zm2.5481 2.7316-0.1531-0.03-0.1297-0.087-0.087-0.1297-0.03-0.1531 0.03-0.1531 0.087-0.1297 1.0367-1.0365 0.1986-0.1852 0.1788-0.1377 0.1709-0.086 0.1532-0.032 0.1537 0.03 0.1306 0.086 0.087 0.1298 0.031 0.1534-0.03 0.1536-0.087 0.1302-0.1437 0.1437-0.2126 0.259-0.3518 0.5266-0.1603 0.3013-0.087 0.1297-0.1298 0.087-0.1531 0.03h-0.5029zm5.1814 0-0.1603-0.034-0.1334-0.095-0.084-0.1404-0.021-0.1625 0.046-0.1572 0.074-0.1386 0.2424-0.585 0.097-0.3207 0.1235-0.6211 0.033-0.3335v-1.8049l-0.033-0.3336-0.1235-0.621-0.097-0.3207-0.2424-0.5851-0.1578-0.2954-0.3518-0.5265-0.2126-0.2591-0.3287-0.3287-0.05-0.061-0.1646-0.2464-0.037-0.069-0.11-0.2654-0.027-0.1008-0.023-0.173v-0.13l0.046-0.1219 0.2375-0.4123 0.1296-0.2456 0.1049-0.2418 0.101-0.3771 0.034-0.3835-0.034-0.3835-0.1-0.3718-0.1627-0.3489-0.2208-0.3154-0.2722-0.2722-0.3154-0.2208-0.3489-0.1627-0.2904-0.078-0.1262-0.059-0.098-0.099-0.059-0.1263-0.012-0.1387 0.038-0.4251-0.034-0.3829-0.1-0.3718-0.1627-0.3489-0.2208-0.3154-0.2722-0.2722-0.3154-0.2208-0.3489-0.1627-0.3718-0.1-0.3835-0.034-0.3835 0.034-0.3718 0.1-0.3489 0.1627-0.3154 0.2208-0.2722 0.2722-0.2208 0.3154-0.1627 0.3489-0.1 0.3718-0.017 0.1898-0.052 0.1651-0.117 0.1277v0.025l0.1166 0.1285 0.051 0.1657 0.018 0.2224 0.032 0.2604 0.092 0.639 0.034 0.4515 0.01 0.3476-0.01 0.084-0.1051 0.5283-0.098 0.2559-0.087 0.1298-0.1297 0.087-0.1531 0.03-0.1531-0.03-0.1297-0.087-0.087-0.1298-0.03-0.1531v-2.6038l0.038-0.1693 0.1058-0.1375 0.063-0.033-0.064-0.033-0.1054-0.1374-0.038-0.169v-7.8614l0.03-0.1531 0.087-0.1298 0.1297-0.087 0.1531-0.03h10.979l0.5101 0.05 0.4639 0.094 0.4525 0.1392 0.4364 0.1829 0.4167 0.2249 0.3924 0.2645 0.3647 0.3018 0.3333 0.336 0.2988 0.3671 0.2614 0.3947 0.2214 0.4183 0.1794 0.4381 0.1355 0.4534 0.09 0.4648 0.044 0.4712-3e-4 0.3773-0.028 0.7014-0.07 0.5257-0.1029 0.4108-0.1311 0.3455-0.1658 0.333-0.2116 0.3652-0.2547 0.4201-0.3248 0.563-0.2902 0.5592-0.1981 0.4716-0.1417 0.5172-0.071 0.5308v0.5356l0.071 0.5307 0.1415 0.5166 0.2091 0.493 0.2729 0.4608 0.3319 0.4203 0.385 0.3723 0.4311 0.3177 0.4697 0.2574 0.4998 0.1925 0.5209 0.1241 0.5329 0.054 0.5352-0.018 0.5281-0.089 0.5116-0.1587 0.4858-0.2254 0.4514-0.2882 0.409-0.3458 0.3592-0.3972 0.3031-0.4415 0.2415-0.478 0.1757-0.5059 0.1067-0.5249 0.036-0.5343-0.036-0.5344-0.1067-0.5248-0.178-0.5128-0.096-0.2089-0.3246-0.6223-0.2793-0.482-0.2732-0.4514-0.2199-0.3814-0.1698-0.3477-0.1286-0.3528-0.097-0.4094-0.065-0.5182-0.025-0.68v-0.4711l-0.011-0.2167-0.064-0.6482-0.032-0.2144-0.1271-0.6388-0.053-0.2101-0.189-0.6233-0.073-0.2046-0.2493-0.6016-0.093-0.1957-0.307-0.5744-0.1116-0.1862-0.3619-0.5416-0.1291-0.1741-0.4132-0.5035-0.1456-0.1607-0.4605-0.4605-0.1607-0.1456-0.5034-0.4132-0.1742-0.1291-0.5415-0.3619-0.1863-0.1116-0.5744-0.307-0.1956-0.093-0.6017-0.2493-0.2046-0.073-0.6233-0.189-0.2101-0.053-0.6387-0.1271-0.2145-0.032-0.6481-0.064-0.2168-0.011h-11.025l-0.1414-0.026-0.1231-0.074-0.089-0.1129-0.043-0.137 0.01-0.1435 0.039-0.1397 0.1237-0.2859 0.1669-0.2629 0.206-0.2336 0.24-0.1985 0.2681-0.1585 0.2896-0.1147 0.304-0.068 0.3329-0.025h16.155l0.153 0.03 0.1298 0.087 1.7376 1.7378 0.1852 0.1987 0.1377 0.1787 0.051 0.088 0.1031 0.2478 0.2138 0.6682 0.1668 0.3577 0.2208 0.3153 0.2722 0.2722 0.3134 0.2195 0.4141 0.1872 0.4623 0.1478 0.3241 0.1127 0.1028 0.053 0.2701 0.1994 0.091 0.086 0.091 0.1298 0.034 0.1552-0.029 0.156-0.088 0.1323-0.1724 0.1724-0.2125 0.259-0.4427 0.6625-0.158 0.2955-0.305 0.7363-0.097 0.3209-0.1796 0.8982-0.1007 0.4461-0.089 0.2975-0.1099 0.2755-0.2721 0.6015-0.1017 0.3796-0.034 0.3835 0.034 0.3835 0.1 0.3719 0.1627 0.3489 0.2208 0.3153 0.2722 0.2722 0.3153 0.2208 0.3489 0.1627 0.3719 0.1 0.3835 0.034 0.3835-0.034 0.3718-0.1 0.3489-0.1627 0.3154-0.2208 0.2722-0.2722 0.2208-0.3153 0.1627-0.3489 0.1-0.3719 0.034-0.3835-0.034-0.3835-0.1009-0.3767-0.1083-0.2482-0.14-0.2595-0.2565-0.4176-0.048-0.115-0.01-0.1242 0.019-0.2144 0.077-0.3886 0.023-0.075 0.176-0.4248 0.037-0.069 0.2556-0.3824 0.105-0.116 0.1298-0.087 0.1531-0.03 0.1531 0.03 0.1297 0.087 0.6121 0.6121 0.259 0.2126 0.6717 0.4488 0.095 0.089 0.061 0.1149 0.021 0.1286v12.079l-0.03 0.1531-0.087 0.1297-0.1297 0.087-0.1531 0.031h-9.928l-0.5238-0.052-0.4771-0.097-0.4653-0.1433-0.4493-0.1881-0.4285-0.2312-0.4038-0.2722-0.3752-0.3104-1.2354-1.2354-0.3339-0.4068-0.2689-0.406-0.2278-0.4303-0.1846-0.4507-0.1396-0.4665-0.094-0.4933-0.029-0.6561 0.039-0.4779 0.085-0.3644 0.1225-0.3088 0.1682-0.3109 0.2257-0.3549 0.2721-0.4121 0.3563-0.5821 0.2918-0.5488 0.1021-0.22 0.1779-0.5123 0.1067-0.5248 0.036-0.5344-0.036-0.5343-0.1067-0.5249-0.1757-0.5059-0.2415-0.478-0.3031-0.4415-0.3593-0.3972-0.4089-0.3458-0.4515-0.2881-0.4858-0.2255-0.5115-0.1586-0.5281-0.089-0.5352-0.018-0.5329 0.054-0.521 0.1241-0.4997 0.1925-0.4697 0.2574-0.4311 0.3177-0.385 0.3723-0.3319 0.4203-0.273 0.4608-0.209 0.4931-0.1415 0.5165-0.071 0.5308v0.5355l0.071 0.5308 0.1414 0.5162 0.2176 0.5112 0.2671 0.5275 0.2881 0.5328 0.2471 0.4479 0.2039 0.3909 0.1662 0.3684 0.1388 0.3867 0.1201 0.4518 0.1045 0.5624 0.1322 1.0482 0.129 0.6488 0.053 0.2109 0.1931 0.6362 0.073 0.2037 0.2544 0.6143 0.093 0.1962 0.3135 0.5864 0.1114 0.1859 0.3694 0.5529 0.1292 0.1742 0.4219 0.514 0.1456 0.1607 1.3889 1.3889 0.1607 0.1457 0.514 0.4218 0.1743 0.1292 0.5528 0.3694 0.1859 0.1114 0.5864 0.3135 0.1962 0.093 0.6143 0.2544 0.2037 0.073 0.6363 0.1931 0.2108 0.053 0.6521 0.1297 0.2144 0.032 0.6618 0.065 0.2166 0.011h9.974l0.1413 0.026 0.1232 0.074 0.089 0.1129 0.043 0.1371-0.01 0.1435-0.039 0.1397-0.1237 0.2858-0.1669 0.263-0.206 0.2336-0.24 0.1985-0.2681 0.1585-0.2896 0.1146-0.304 0.068-0.3329 0.025h-17.654z" stroke-width="0"/><g fill="none"><g stroke-linecap="round"><polyline points="4014 3441.5 4014 3442.2 4014.3 3442.5 4032.5 3442.5 4033.2 3442.6 4033.8 3442.7 4034.5 3442.9 4035.1 3443.1 4035.7 3443.5 4036.2 3443.8 4036.8 3444.3 4037.2 3444.7 4037.7 3445.3 4038 3445.8 4038.4 3446.4 4038.6 3447 4038.8 3447.7 4038.9 3448.3 4039 3449 4039 3455.5" stroke-width="2" c_shapetype="line" layerid="1" locked="0" net=""/><polyline points="4058 3463.5 4058 3462.8 4057.7 3462.5 4038.5 3462.5 4037.9 3462.4 4037.2 3462.3 4036.5 3462.1 4035.9 3461.8 4035.3 3461.5 4034.7 3461.1 4034.2 3460.7 4032.8 3459.3 4032.4 3458.8 4032 3458.2 4031.7 3457.6 4031.4 3457 4031.2 3456.3 4031.1 3455.6 4031 3455 4031 3449.5" stroke-width="2" c_shapetype="line" layerid="1" locked="0" net=""/><polyline points="4038 3433.5 4038 3434.6 4038.3 3435.3 4044 3441" c_shapetype="line" layerid="1" locked="0" net=""/><polyline points="4044 3441 4047 3444 4049 3446 4049.7 3446.5 4050.6 3446.8 4051.5 3447 4055 3447" c_shapetype="line" layerid="1" locked="0" net=""/><polyline points="4044.5 3450 4044.5 3447.8 4044.7 3447 4045 3446.2 4045.4 3445.5 4047 3444" c_shapetype="line" layerid="1" locked="0" net=""/><polyline points="4030 3472.5 4027.4 3472.5 4026.7 3472.2 4026.3 3471.8 4026 3471.1 4026 3468.1 4026.1 3467.4 4026.4 3466.8 4026.8 3466.2 4027.2 3465.8 4027.6 3465.2 4027.9 3464.6 4028 3463.9 4028 3462.1 4027.9 3461.4 4027.6 3460.8 4027.2 3460.2 4026.8 3459.8 4026.4 3459.2 4026.1 3458.6 4026 3457.9 4026 3456" c_shapetype="line" layerid="1" locked="0" net=""/><polyline points="4017 3467.5 4018.9 3467.5 4019.6 3467.4 4020.2 3467.1 4020.8 3466.7 4025.5 3462" c_shapetype="line" layerid="1" locked="0" net=""/><polyline points="4024 3453 4023.5 3453 4023.5 3455.5 4023.3 3456.4 4023 3457.3 4022.5 3458 4021 3459.5 4020.3 3460 4019.4 3460.3 4018.5 3460.5 4010.5 3460.5 4010.2 3461.2 4023.5 3474.5" c_shapetype="line" layerid="1" locked="0" net=""/></g><path d="m4048 3445a1.5 1.5 0 0 0-2.1213 0" c_helper_type="arc2" c_shapetype="line" layerid="1" locked="0" net=""/><path d="m4045.9 3445a1.5 1.5 0 0 0 0-2.1213" c_helper_type="arc2" c_shapetype="line" layerid="1" locked="0" net=""/></g><g stroke-width="0"><path d="m4038 3449.5-0.028 0.7553-0.08 0.6233-0.1273 0.5228-0.1692 0.4538-0.2061 0.4163-0.2377 0.4104-0.2643 0.4359-0.2856 0.493-0.3018 0.5815 2.7 2.8077 2.7-2.8077-0.3018-0.5815-0.2856-0.493-0.2642-0.4359-0.2378-0.4104-0.2061-0.4163-0.1692-0.4538-0.1273-0.5228-0.08-0.6233-0.028-0.7553z" c_shapetype="line" c_targetpad="" c_targetwire="" c_teardrop="" layerid="1" locked="0" net="" type="solid"/><path d="m4032 3455.4-0.036-0.7355 0.044-0.6081 0.1132-0.5112 0.1717-0.4447 0.2194-0.4087 0.2564-0.4031 0.2825-0.428 0.2979-0.4833 0.3026-0.5691-2.7-2.8077-2.7 2.8077 0.3009 0.5945 0.2733 0.5041 0.246 0.4458 0.2195 0.4195 0.1935 0.4252 0.168 0.463 0.1431 0.5327 0.1188 0.6346 0.095 0.7683z" c_shapetype="line" c_targetpad="" c_targetwire="" c_teardrop="" layerid="1" locked="0" net="" type="solid"/><path d="m4041.9 3439.7 0.2056 0.2172 0.1595 0.1936 0.122 0.1775 0.093 0.1689 0.073 0.1679 0.062 0.1745 0.059 0.1885 0.064 0.21 0.079 0.2392 1.5578 0.03-0.03-1.5578-0.2392-0.079-0.21-0.064-0.1885-0.059-0.1745-0.062-0.1679-0.073-0.1689-0.093-0.1775-0.122-0.1936-0.1595-0.2172-0.2056z" c_shapetype="line" c_targetpad="" c_targetwire="" c_teardrop="" layerid="1" locked="0" net="" type="solid"/><path d="m4046.1 3442.3-0.2056-0.2172-0.1595-0.1936-0.122-0.1775-0.093-0.1689-0.073-0.1679-0.062-0.1745-0.059-0.1885-0.064-0.21-0.079-0.2392-1.5578-0.03 0.03 1.5578 0.2392 0.079 0.21 0.064 0.1885 0.059 0.1745 0.062 0.1679 0.073 0.1689 0.093 0.1775 0.122 0.1936 0.1595 0.2172 0.2056z" c_shapetype="line" c_targetpad="" c_targetwire="" c_teardrop="" layerid="1" locked="0" net="" type="solid"/><path d="m4044.1 3447.5-0.062 0.3094-0.055 0.2596-0.052 0.2214-0.053 0.1948-0.057 0.1801-0.066 0.1768-0.078 0.1854-0.094 0.2055-0.1134 0.2374 1.08 1.1231 1.08-1.1231-0.1131-0.2134-0.1123-0.1851-0.1061-0.1672-0.095-0.1598-0.078-0.1626-0.057-0.176-0.03-0.1996v-0.2336l0.04-0.278z" c_shapetype="line" c_targetpad="" c_targetwire="" c_teardrop="" layerid="1" locked="0" net="" type="solid"/><path d="m4026.6 3458.3-0.041-0.2756-0.01-0.2324 0.023-0.1993 0.049-0.1762 0.07-0.1632 0.087-0.1602 0.099-0.1673 0.1068-0.1844 0.1104-0.2116-1.08-1.1231-1.08 1.1231 0.1157 0.2381 0.099 0.2052 0.085 0.1843 0.074 0.1753 0.066 0.1784 0.061 0.1934 0.059 0.2205 0.06 0.2595 0.064 0.3106z" c_shapetype="line" c_targetpad="" c_targetwire="" c_teardrop="" layerid="1" locked="0" net="" type="solid"/><path d="m4024.2 3464.1 0.2172-0.2056 0.1936-0.1595 0.1775-0.122 0.1689-0.093 0.1679-0.073 0.1745-0.062 0.1885-0.059 0.21-0.064 0.2392-0.079 0.03-1.5578-1.5578 0.03-0.079 0.2392-0.064 0.21-0.059 0.1885-0.062 0.1745-0.073 0.1679-0.093 0.1689-0.122 0.1775-0.1595 0.1936-0.2056 0.2172z" c_shapetype="line" c_targetpad="" c_targetwire="" c_teardrop="" layerid="1" locked="0" net="" type="solid"/><path d="m4024 3455.3 0.01-0.2393 0.029-0.2009 0.048-0.1698 0.067-0.1455 0.086-0.1282 0.104-0.1182 0.1222-0.1149 0.1402-0.1188 0.1578-0.1298-0.5138-1.4709-1.4497 0.571 0.012 0.2883 0.021 0.2464 0.027 0.2185 0.031 0.2047 0.032 0.2049 0.029 0.2192 0.024 0.2474 0.017 0.2898 0.01 0.3461z" c_shapetype="line" c_targetpad="" c_targetwire="" c_teardrop="" layerid="1" locked="0" net="" type="solid"/></g><g c_etype="pinpart" c_height="6" c_origin="4039,3455.5" c_partid="part_pad" c_rotation="0" c_width="6" layerid="11" net=""><circle cx="4039" cy="3455.5" r="3" stroke-width="0" c_etype="pad_shell"/></g><g c_etype="pinpart" c_height="6" c_origin="4031,3449.5" c_partid="part_pad" c_rotation="0" c_width="6" layerid="11" net=""><circle cx="4031" cy="3449.5" r="3" stroke-width="0" c_etype="pad_shell"/></g><g c_etype="pinpart" c_origin="4044,3441" c_partid="part_via" c_rotation="undefined" layerid="11" net=""><circle cx="4044" cy="3441" r="1.2" stroke-width="0"/></g><g c_etype="pinpart" c_origin="4044.5,3450" c_partid="part_via" c_rotation="undefined" layerid="11" net=""><circle cx="4044.5" cy="3450" r="1.2" stroke-width="0"/></g><g c_etype="pinpart" c_origin="4024,3453" c_partid="part_via" c_rotation="undefined" layerid="11" net=""><circle cx="4024" cy="3453" r="1.2" stroke-width="0"/></g><g c_etype="pinpart" c_origin="4026,3456" c_partid="part_via" c_rotation="undefined" layerid="11" net=""><circle cx="4026" cy="3456" r="1.2" stroke-width="0"/></g><g c_etype="pinpart" c_origin="4025.5,3462" c_partid="part_via" c_rotation="undefined" layerid="11" net=""><circle cx="4025.5" cy="3462" r="1.2" stroke-width="0"/></g></g><path id="l" d="m4023 3467.5h-0.1528l-0.1544-0.012-0.1558-0.02-0.1501-0.028-0.151-0.036-0.1496-0.044-0.1449-0.051-0.1458-0.06-0.1375-0.064-0.1376-0.073-0.1336-0.081-0.1275-0.086-0.1235-0.093-0.1202-0.1007-0.1124-0.1043-0.1081-0.1115-0.1017-0.1162-0.096-0.1216-0.089-0.1261-0.084-0.1329-0.075-0.1329-0.069-0.1383-0.062-0.1438-0.055-0.1456-0.046-0.1453-0.04-0.1528-0.031-0.1493-0.023-0.1526-0.015-0.1569-0.01-0.1519-7e-4 -0.07v-24.151l0.012-0.1544 0.02-0.1558 0.028-0.1501 0.036-0.151 0.044-0.1496 0.051-0.1449 0.059-0.1458 0.064-0.1375 0.073-0.1376 0.081-0.1336 0.086-0.1275 0.093-0.1235 0.1007-0.1202 0.1043-0.1124 0.1115-0.1081 0.1162-0.1017 0.1216-0.096 0.1261-0.089 0.1329-0.084 0.1329-0.075 0.1383-0.069 0.1438-0.062 0.1456-0.054 0.1453-0.046 0.1528-0.04 0.1493-0.031 0.1526-0.023 0.1569-0.015 0.1519-0.01 0.07-7e-4h24.151l0.1544 0.012 0.1558 0.02 0.1501 0.028 0.151 0.036 0.1496 0.044 0.1449 0.051 0.1458 0.059 0.1375 0.064 0.1376 0.073 0.1336 0.081 0.1275 0.086 0.1235 0.093 0.1202 0.1007 0.1124 0.1043 0.1081 0.1115 0.1017 0.1162 0.096 0.1216 0.089 0.1261 0.084 0.1329 0.075 0.1329 0.069 0.1383 0.062 0.1438 0.054 0.1456 0.046 0.1453 0.04 0.1528 0.031 0.1493 0.023 0.1526 0.015 0.1569 0.01 0.1519 7e-4 0.07v24.151l-0.012 0.1544-0.02 0.1558-0.028 0.1501-0.036 0.151-0.044 0.1496-0.051 0.1449-0.059 0.1458-0.064 0.1375-0.073 0.1376-0.081 0.1336-0.086 0.1275-0.093 0.1235-0.1007 0.1202-0.1043 0.1124-0.1115 0.1081-0.1162 0.1017-0.1216 0.096-0.1261 0.089-0.1329 0.084-0.1329 0.075-0.1383 0.069-0.1438 0.062-0.1456 0.055-0.1453 0.046-0.1528 0.04-0.1493 0.031-0.1526 0.023-0.1569 0.015-0.1519 0.01-0.07 7e-4z" display="none" fill="#0b3b0b" mask="url(#e)"/><g id="m" display="none" fill="#dcaa14" stroke="#dcaa14"><g c_etype="pinpart" c_height="6" c_origin="4039,3455.5" c_partid="part_pad" c_rotation="0" c_width="6" layerid="11" net=""><circle cx="4039" cy="3455.5" r="3" stroke-width="0" c_etype="pad_hole"/></g><g c_etype="pinpart" c_height="6" c_origin="4031,3449.5" c_partid="part_pad" c_rotation="0" c_width="6" layerid="11" net=""><circle cx="4031" cy="3449.5" r="3" stroke-width="0" c_etype="pad_hole"/></g><g c_etype="pinpart" c_origin="4044,3441" c_partid="part_via" c_rotation="undefined" layerid="11" net=""><circle cx="4044" cy="3441" r="1.2" stroke-width="0"/></g><g c_etype="pinpart" c_origin="4044.5,3450" c_partid="part_via" c_rotation="undefined" layerid="11" net=""><circle cx="4044.5" cy="3450" r="1.2" stroke-width="0"/></g><g c_etype="pinpart" c_origin="4024,3453" c_partid="part_via" c_rotation="undefined" layerid="11" net=""><circle cx="4024" cy="3453" r="1.2" stroke-width="0"/></g><g c_etype="pinpart" c_origin="4026,3456" c_partid="part_via" c_rotation="undefined" layerid="11" net=""><circle cx="4026" cy="3456" r="1.2" stroke-width="0"/></g><g c_etype="pinpart" c_origin="4025.5,3462" c_partid="part_via" c_rotation="undefined" layerid="11" net=""><circle cx="4025.5" cy="3462" r="1.2" stroke-width="0"/></g></g><g id="n" display="none" fill="#00be00" mask="url(#d)" stroke="#00be00"><g c_etype="pinpart" c_height="6" c_origin="4039,3455.5" c_partid="part_pad" c_rotation="0" c_width="6" layerid="11" net=""><circle cx="4039" cy="3455.5" r="3" stroke-width="0" c_etype="pad_hole"/></g><g c_etype="pinpart" c_height="6" c_origin="4031,3449.5" c_partid="part_pad" c_rotation="0" c_width="6" layerid="11" net=""><circle cx="4031" cy="3449.5" r="3" stroke-width="0" c_etype="pad_hole"/></g><g c_etype="pinpart" c_origin="4044,3441" c_partid="part_via" c_rotation="undefined" layerid="11" net=""><circle cx="4044" cy="3441" r="1.2" stroke-width="0"/></g><g c_etype="pinpart" c_origin="4044.5,3450" c_partid="part_via" c_rotation="undefined" layerid="11" net=""><circle cx="4044.5" cy="3450" r="1.2" stroke-width="0"/></g><g c_etype="pinpart" c_origin="4024,3453" c_partid="part_via" c_rotation="undefined" layerid="11" net=""><circle cx="4024" cy="3453" r="1.2" stroke-width="0"/></g><g c_etype="pinpart" c_origin="4026,3456" c_partid="part_via" c_rotation="undefined" layerid="11" net=""><circle cx="4026" cy="3456" r="1.2" stroke-width="0"/></g><g c_etype="pinpart" c_origin="4025.5,3462" c_partid="part_via" c_rotation="undefined" layerid="11" net=""><circle cx="4025.5" cy="3462" r="1.2" stroke-width="0"/></g></g></g></g></svg>
