<?xml version="1.0" encoding="UTF-8"?>
<svg width="25.4mm" height="25.4mm" version="1.1" viewBox="4000.2 3423.5 100 100" xmlns="http://www.w3.org/2000/svg"><title>Photo View</title><defs id="f"><mask id="c" x="4010.2" y="3430.5" width="47.8" height="44" maskUnits="userSpaceOnUse"><path d="m4023 3467.5-0.1528-0.0039-0.1544-0.012-0.1558-0.0202-0.1501-0.0276-0.151-0.0356-0.1496-0.0436-0.1449-0.0506-0.1458-0.0595-0.1375-0.0644-0.1376-0.0735-0.1336-0.0807-0.1275-0.086-0.1235-0.0929-0.1202-0.1007-0.1124-0.1043-0.1081-0.1115-0.1017-0.1162-0.0959-0.1216-0.089-0.1261-0.0841-0.1329-0.0748-0.1329-0.0686-0.1383-0.0623-0.1438-0.0545-0.1456-0.0458-0.1453-0.0397-0.1528-0.0306-0.1493-0.0234-0.1526-0.0155-0.1569-0.0073-0.1519-7e-4 -0.0696v-23.998l0.0039-0.1528 0.012-0.1544 0.0202-0.1558 0.0276-0.1501 0.0356-0.151 0.0436-0.1496 0.0506-0.1449 0.0595-0.1458 0.0644-0.1375 0.0735-0.1376 0.0807-0.1336 0.086-0.1275 0.0929-0.1235 0.1007-0.1202 0.1043-0.1124 0.1115-0.1081 0.1162-0.1017 0.1216-0.0959 0.1261-0.089 0.1329-0.0841 0.1329-0.0748 0.1383-0.0686 0.1438-0.0623 0.1456-0.0545 0.1453-0.0458 0.1528-0.0397 0.1493-0.0306 0.1526-0.0234 0.1569-0.0155 0.1519-0.0073 0.0696-7e-4h23.998l0.1528 0.0039 0.1544 0.012 0.1558 0.0202 0.1501 0.0276 0.151 0.0356 0.1496 0.0436 0.1449 0.0506 0.1458 0.0595 0.1375 0.0644 0.1376 0.0735 0.1336 0.0807 0.1275 0.086 0.1235 0.0929 0.1202 0.1007 0.1124 0.1043 0.1081 0.1115 0.1017 0.1162 0.0959 0.1216 0.089 0.1261 0.0841 0.1329 0.0748 0.1329 0.0686 0.1383 0.0623 0.1438 0.0545 0.1456 0.0458 0.1453 0.0397 0.1528 0.0306 0.1493 0.0234 0.1526 0.0155 0.1569 0.0073 0.1519 7e-4 0.0696v23.998l-0.0039 0.1531-0.012 0.1544-0.0202 0.1558-0.0276 0.1501-0.0356 0.151-0.0436 0.1496-0.0506 0.1449-0.0595 0.1458-0.0644 0.1375-0.0735 0.1376-0.0807 0.1336-0.086 0.1275-0.0929 0.1235-0.1007 0.1202-0.1043 0.1124-0.1115 0.1081-0.1162 0.1017-0.1216 0.0959-0.1261 0.089-0.1329 0.0841-0.1329 0.0748-0.1383 0.0686-0.1438 0.0623-0.1456 0.0545-0.1453 0.0458-0.1528 0.0397-0.1493 0.0306-0.1526 0.0234-0.1569 0.0155-0.1519 0.0073-0.0696 7e-4z" fill="#fff"/><g><circle cx="4039" cy="3455.5" r="1.8" stroke-width="0"/><circle cx="4031" cy="3449.5" r="1.8" stroke-width="0"/><circle cx="4044" cy="3441" r=".6" stroke-width="0"/><circle cx="4044.5" cy="3450" r=".6" stroke-width="0"/><circle cx="4024" cy="3453" r=".6" stroke-width="0"/><circle cx="4026" cy="3456" r=".6" stroke-width="0"/><circle cx="4025.5" cy="3462" r=".6" stroke-width="0"/></g></mask><mask id="b" x="4010.2" y="3430.5" width="47.8" height="44" maskUnits="userSpaceOnUse"><path d="m4023 3467.5-0.1528-0.0039-0.1544-0.012-0.1558-0.0202-0.1501-0.0276-0.151-0.0356-0.1496-0.0436-0.1449-0.0506-0.1458-0.0595-0.1375-0.0644-0.1376-0.0735-0.1336-0.0807-0.1275-0.086-0.1235-0.0929-0.1202-0.1007-0.1124-0.1043-0.1081-0.1115-0.1017-0.1162-0.0959-0.1216-0.089-0.1261-0.0841-0.1329-0.0748-0.1329-0.0686-0.1383-0.0623-0.1438-0.0545-0.1456-0.0458-0.1453-0.0397-0.1528-0.0306-0.1493-0.0234-0.1526-0.0155-0.1569-0.0073-0.1519-7e-4 -0.0696v-23.998l0.0039-0.1528 0.012-0.1544 0.0202-0.1558 0.0276-0.1501 0.0356-0.151 0.0436-0.1496 0.0506-0.1449 0.0595-0.1458 0.0644-0.1375 0.0735-0.1376 0.0807-0.1336 0.086-0.1275 0.0929-0.1235 0.1007-0.1202 0.1043-0.1124 0.1115-0.1081 0.1162-0.1017 0.1216-0.0959 0.1261-0.089 0.1329-0.0841 0.1329-0.0748 0.1383-0.0686 0.1438-0.0623 0.1456-0.0545 0.1453-0.0458 0.1528-0.0397 0.1493-0.0306 0.1526-0.0234 0.1569-0.0155 0.1519-0.0073 0.0696-7e-4h23.998l0.1528 0.0039 0.1544 0.012 0.1558 0.0202 0.1501 0.0276 0.151 0.0356 0.1496 0.0436 0.1449 0.0506 0.1458 0.0595 0.1375 0.0644 0.1376 0.0735 0.1336 0.0807 0.1275 0.086 0.1235 0.0929 0.1202 0.1007 0.1124 0.1043 0.1081 0.1115 0.1017 0.1162 0.0959 0.1216 0.089 0.1261 0.0841 0.1329 0.0748 0.1329 0.0686 0.1383 0.0623 0.1438 0.0545 0.1456 0.0458 0.1453 0.0397 0.1528 0.0306 0.1493 0.0234 0.1526 0.0155 0.1569 0.0073 0.1519 7e-4 0.0696v23.998l-0.0039 0.1531-0.012 0.1544-0.0202 0.1558-0.0276 0.1501-0.0356 0.151-0.0436 0.1496-0.0506 0.1449-0.0595 0.1458-0.0644 0.1375-0.0735 0.1376-0.0807 0.1336-0.086 0.1275-0.0929 0.1235-0.1007 0.1202-0.1043 0.1124-0.1115 0.1081-0.1162 0.1017-0.1216 0.0959-0.1261 0.089-0.1329 0.0841-0.1329 0.0748-0.1383 0.0686-0.1438 0.0623-0.1456 0.0545-0.1453 0.0458-0.1528 0.0397-0.1493 0.0306-0.1526 0.0234-0.1569 0.0155-0.1519 0.0073-0.0696 7e-4z" fill="#fff"/><g><ellipse cx="4039" cy="3455.5" rx="3.4" ry="3.4" stroke-width="0" c_etype="pad_outer"/><ellipse cx="4031" cy="3449.5" rx="3.4" ry="3.4" stroke-width="0" c_etype="pad_outer"/></g></mask><mask id="a" x="4010.2" y="3430.5" width="47.8" height="44" maskUnits="userSpaceOnUse"><path d="m4023 3467.5-0.1528-0.0039-0.1544-0.012-0.1558-0.0202-0.1501-0.0276-0.151-0.0356-0.1496-0.0436-0.1449-0.0506-0.1458-0.0595-0.1375-0.0644-0.1376-0.0735-0.1336-0.0807-0.1275-0.086-0.1235-0.0929-0.1202-0.1007-0.1124-0.1043-0.1081-0.1115-0.1017-0.1162-0.0959-0.1216-0.089-0.1261-0.0841-0.1329-0.0748-0.1329-0.0686-0.1383-0.0623-0.1438-0.0545-0.1456-0.0458-0.1453-0.0397-0.1528-0.0306-0.1493-0.0234-0.1526-0.0155-0.1569-0.0073-0.1519-7e-4 -0.0696v-23.998l0.0039-0.1528 0.012-0.1544 0.0202-0.1558 0.0276-0.1501 0.0356-0.151 0.0436-0.1496 0.0506-0.1449 0.0595-0.1458 0.0644-0.1375 0.0735-0.1376 0.0807-0.1336 0.086-0.1275 0.0929-0.1235 0.1007-0.1202 0.1043-0.1124 0.1115-0.1081 0.1162-0.1017 0.1216-0.0959 0.1261-0.089 0.1329-0.0841 0.1329-0.0748 0.1383-0.0686 0.1438-0.0623 0.1456-0.0545 0.1453-0.0458 0.1528-0.0397 0.1493-0.0306 0.1526-0.0234 0.1569-0.0155 0.1519-0.0073 0.0696-7e-4h23.998l0.1528 0.0039 0.1544 0.012 0.1558 0.0202 0.1501 0.0276 0.151 0.0356 0.1496 0.0436 0.1449 0.0506 0.1458 0.0595 0.1375 0.0644 0.1376 0.0735 0.1336 0.0807 0.1275 0.086 0.1235 0.0929 0.1202 0.1007 0.1124 0.1043 0.1081 0.1115 0.1017 0.1162 0.0959 0.1216 0.089 0.1261 0.0841 0.1329 0.0748 0.1329 0.0686 0.1383 0.0623 0.1438 0.0545 0.1456 0.0458 0.1453 0.0397 0.1528 0.0306 0.1493 0.0234 0.1526 0.0155 0.1569 0.0073 0.1519 7e-4 0.0696v23.998l-0.0039 0.1531-0.012 0.1544-0.0202 0.1558-0.0276 0.1501-0.0356 0.151-0.0436 0.1496-0.0506 0.1449-0.0595 0.1458-0.0644 0.1375-0.0735 0.1376-0.0807 0.1336-0.086 0.1275-0.0929 0.1235-0.1007 0.1202-0.1043 0.1124-0.1115 0.1081-0.1162 0.1017-0.1216 0.0959-0.1261 0.089-0.1329 0.0841-0.1329 0.0748-0.1383 0.0686-0.1438 0.0623-0.1456 0.0545-0.1453 0.0458-0.1528 0.0397-0.1493 0.0306-0.1526 0.0234-0.1569 0.0155-0.1519 0.0073-0.0696 7e-4z" fill="#fff"/><g><ellipse cx="4039" cy="3455.5" rx="3.4" ry="3.4" stroke-width="0" c_etype="pad_outer"/><ellipse cx="4031" cy="3449.5" rx="3.4" ry="3.4" stroke-width="0" c_etype="pad_outer"/></g></mask><mask id="e" x="4010.2" y="3430.5" width="47.8" height="44" maskUnits="userSpaceOnUse"><path d="m4023 3467.5-0.1528-0.0039-0.1544-0.012-0.1558-0.0202-0.1501-0.0276-0.151-0.0356-0.1496-0.0436-0.1449-0.0506-0.1458-0.0595-0.1375-0.0644-0.1376-0.0735-0.1336-0.0807-0.1275-0.086-0.1235-0.0929-0.1202-0.1007-0.1124-0.1043-0.1081-0.1115-0.1017-0.1162-0.0959-0.1216-0.089-0.1261-0.0841-0.1329-0.0748-0.1329-0.0686-0.1383-0.0623-0.1438-0.0545-0.1456-0.0458-0.1453-0.0397-0.1528-0.0306-0.1493-0.0234-0.1526-0.0155-0.1569-0.0073-0.1519-7e-4 -0.0696v-23.998l0.0039-0.1528 0.012-0.1544 0.0202-0.1558 0.0276-0.1501 0.0356-0.151 0.0436-0.1496 0.0506-0.1449 0.0595-0.1458 0.0644-0.1375 0.0735-0.1376 0.0807-0.1336 0.086-0.1275 0.0929-0.1235 0.1007-0.1202 0.1043-0.1124 0.1115-0.1081 0.1162-0.1017 0.1216-0.0959 0.1261-0.089 0.1329-0.0841 0.1329-0.0748 0.1383-0.0686 0.1438-0.0623 0.1456-0.0545 0.1453-0.0458 0.1528-0.0397 0.1493-0.0306 0.1526-0.0234 0.1569-0.0155 0.1519-0.0073 0.0696-7e-4h23.998l0.1528 0.0039 0.1544 0.012 0.1558 0.0202 0.1501 0.0276 0.151 0.0356 0.1496 0.0436 0.1449 0.0506 0.1458 0.0595 0.1375 0.0644 0.1376 0.0735 0.1336 0.0807 0.1275 0.086 0.1235 0.0929 0.1202 0.1007 0.1124 0.1043 0.1081 0.1115 0.1017 0.1162 0.0959 0.1216 0.089 0.1261 0.0841 0.1329 0.0748 0.1329 0.0686 0.1383 0.0623 0.1438 0.0545 0.1456 0.0458 0.1453 0.0397 0.1528 0.0306 0.1493 0.0234 0.1526 0.0155 0.1569 0.0073 0.1519 7e-4 0.0696v23.998l-0.0039 0.1531-0.012 0.1544-0.0202 0.1558-0.0276 0.1501-0.0356 0.151-0.0436 0.1496-0.0506 0.1449-0.0595 0.1458-0.0644 0.1375-0.0735 0.1376-0.0807 0.1336-0.086 0.1275-0.0929 0.1235-0.1007 0.1202-0.1043 0.1124-0.1115 0.1081-0.1162 0.1017-0.1216 0.0959-0.1261 0.089-0.1329 0.0841-0.1329 0.0748-0.1383 0.0686-0.1438 0.0623-0.1456 0.0545-0.1453 0.0458-0.1528 0.0397-0.1493 0.0306-0.1526 0.0234-0.1569 0.0155-0.1519 0.0073-0.0696 7e-4z" fill="#fff"/><g><ellipse cx="4039" cy="3455.5" rx="3.4" ry="3.4" stroke-width="0" c_etype="pad_outer"/><ellipse cx="4031" cy="3449.5" rx="3.4" ry="3.4" stroke-width="0" c_etype="pad_outer"/></g></mask><mask id="d" x="4010.2" y="3430.5" width="47.8" height="44" maskUnits="userSpaceOnUse"><path d="m4023 3467.5-0.1528-0.0039-0.1544-0.012-0.1558-0.0202-0.1501-0.0276-0.151-0.0356-0.1496-0.0436-0.1449-0.0506-0.1458-0.0595-0.1375-0.0644-0.1376-0.0735-0.1336-0.0807-0.1275-0.086-0.1235-0.0929-0.1202-0.1007-0.1124-0.1043-0.1081-0.1115-0.1017-0.1162-0.0959-0.1216-0.089-0.1261-0.0841-0.1329-0.0748-0.1329-0.0686-0.1383-0.0623-0.1438-0.0545-0.1456-0.0458-0.1453-0.0397-0.1528-0.0306-0.1493-0.0234-0.1526-0.0155-0.1569-0.0073-0.1519-7e-4 -0.0696v-23.998l0.0039-0.1528 0.012-0.1544 0.0202-0.1558 0.0276-0.1501 0.0356-0.151 0.0436-0.1496 0.0506-0.1449 0.0595-0.1458 0.0644-0.1375 0.0735-0.1376 0.0807-0.1336 0.086-0.1275 0.0929-0.1235 0.1007-0.1202 0.1043-0.1124 0.1115-0.1081 0.1162-0.1017 0.1216-0.0959 0.1261-0.089 0.1329-0.0841 0.1329-0.0748 0.1383-0.0686 0.1438-0.0623 0.1456-0.0545 0.1453-0.0458 0.1528-0.0397 0.1493-0.0306 0.1526-0.0234 0.1569-0.0155 0.1519-0.0073 0.0696-7e-4h23.998l0.1528 0.0039 0.1544 0.012 0.1558 0.0202 0.1501 0.0276 0.151 0.0356 0.1496 0.0436 0.1449 0.0506 0.1458 0.0595 0.1375 0.0644 0.1376 0.0735 0.1336 0.0807 0.1275 0.086 0.1235 0.0929 0.1202 0.1007 0.1124 0.1043 0.1081 0.1115 0.1017 0.1162 0.0959 0.1216 0.089 0.1261 0.0841 0.1329 0.0748 0.1329 0.0686 0.1383 0.0623 0.1438 0.0545 0.1456 0.0458 0.1453 0.0397 0.1528 0.0306 0.1493 0.0234 0.1526 0.0155 0.1569 0.0073 0.1519 7e-4 0.0696v23.998l-0.0039 0.1531-0.012 0.1544-0.0202 0.1558-0.0276 0.1501-0.0356 0.151-0.0436 0.1496-0.0506 0.1449-0.0595 0.1458-0.0644 0.1375-0.0735 0.1376-0.0807 0.1336-0.086 0.1275-0.0929 0.1235-0.1007 0.1202-0.1043 0.1124-0.1115 0.1081-0.1162 0.1017-0.1216 0.0959-0.1261 0.089-0.1329 0.0841-0.1329 0.0748-0.1383 0.0686-0.1438 0.0623-0.1456 0.0545-0.1453 0.0458-0.1528 0.0397-0.1493 0.0306-0.1526 0.0234-0.1569 0.0155-0.1519 0.0073-0.0696 7e-4z" fill="#fff"/><g><ellipse cx="4039" cy="3455.5" rx="3.4" ry="3.4" stroke-width="0" c_etype="pad_outer"/><ellipse cx="4031" cy="3449.5" rx="3.4" ry="3.4" stroke-width="0" c_etype="pad_outer"/></g></mask></defs><g class="photoview" mask="url(#c)"><g id="g" class="shapeBox"><path id="h" d="m4023 3467.5-0.1528-0.0039-0.1544-0.012-0.1558-0.0202-0.1501-0.0276-0.151-0.0356-0.1496-0.0436-0.1449-0.0506-0.1458-0.0595-0.1375-0.0644-0.1376-0.0735-0.1336-0.0807-0.1275-0.086-0.1235-0.0929-0.1202-0.1007-0.1124-0.1043-0.1081-0.1115-0.1017-0.1162-0.0959-0.1216-0.089-0.1261-0.0841-0.1329-0.0748-0.1329-0.0686-0.1383-0.0623-0.1438-0.0545-0.1456-0.0458-0.1453-0.0397-0.1528-0.0306-0.1493-0.0234-0.1526-0.0155-0.1569-0.0073-0.1519-7e-4 -0.0696v-23.998l0.0039-0.1528 0.012-0.1544 0.0202-0.1558 0.0276-0.1501 0.0356-0.151 0.0436-0.1496 0.0506-0.1449 0.0595-0.1458 0.0644-0.1375 0.0735-0.1376 0.0807-0.1336 0.086-0.1275 0.0929-0.1235 0.1007-0.1202 0.1043-0.1124 0.1115-0.1081 0.1162-0.1017 0.1216-0.0959 0.1261-0.089 0.1329-0.0841 0.1329-0.0748 0.1383-0.0686 0.1438-0.0623 0.1456-0.0545 0.1453-0.0458 0.1528-0.0397 0.1493-0.0306 0.1526-0.0234 0.1569-0.0155 0.1519-0.0073 0.0696-7e-4h23.998l0.1528 0.0039 0.1544 0.012 0.1558 0.0202 0.1501 0.0276 0.151 0.0356 0.1496 0.0436 0.1449 0.0506 0.1458 0.0595 0.1375 0.0644 0.1376 0.0735 0.1336 0.0807 0.1275 0.086 0.1235 0.0929 0.1202 0.1007 0.1124 0.1043 0.1081 0.1115 0.1017 0.1162 0.0959 0.1216 0.089 0.1261 0.0841 0.1329 0.0748 0.1329 0.0686 0.1383 0.0623 0.1438 0.0545 0.1456 0.0458 0.1453 0.0397 0.1528 0.0306 0.1493 0.0234 0.1526 0.0155 0.1569 0.0073 0.1519 7e-4 0.0696v23.998l-0.0039 0.1531-0.012 0.1544-0.0202 0.1558-0.0276 0.1501-0.0356 0.151-0.0436 0.1496-0.0506 0.1449-0.0595 0.1458-0.0644 0.1375-0.0735 0.1376-0.0807 0.1336-0.086 0.1275-0.0929 0.1235-0.1007 0.1202-0.1043 0.1124-0.1115 0.1081-0.1162 0.1017-0.1216 0.0959-0.1261 0.089-0.1329 0.0841-0.1329 0.0748-0.1383 0.0686-0.1438 0.0623-0.1456 0.0545-0.1453 0.0458-0.1528 0.0397-0.1493 0.0306-0.1526 0.0234-0.1569 0.0155-0.1519 0.0073-0.0696 7e-4z" fill="#80785F"/><path id="i" d="m4023 3467.5-0.1528-0.0039-0.1544-0.012-0.1558-0.0202-0.1501-0.0276-0.151-0.0356-0.1496-0.0436-0.1449-0.0506-0.1458-0.0595-0.1375-0.0644-0.1376-0.0735-0.1336-0.0807-0.1275-0.086-0.1235-0.0929-0.1202-0.1007-0.1124-0.1043-0.1081-0.1115-0.1017-0.1162-0.0959-0.1216-0.089-0.1261-0.0841-0.1329-0.0748-0.1329-0.0686-0.1383-0.0623-0.1438-0.0545-0.1456-0.0458-0.1453-0.0397-0.1528-0.0306-0.1493-0.0234-0.1526-0.0155-0.1569-0.0073-0.1519-7e-4 -0.0696v-23.998l0.0039-0.1528 0.012-0.1544 0.0202-0.1558 0.0276-0.1501 0.0356-0.151 0.0436-0.1496 0.0506-0.1449 0.0595-0.1458 0.0644-0.1375 0.0735-0.1376 0.0807-0.1336 0.086-0.1275 0.0929-0.1235 0.1007-0.1202 0.1043-0.1124 0.1115-0.1081 0.1162-0.1017 0.1216-0.0959 0.1261-0.089 0.1329-0.0841 0.1329-0.0748 0.1383-0.0686 0.1438-0.0623 0.1456-0.0545 0.1453-0.0458 0.1528-0.0397 0.1493-0.0306 0.1526-0.0234 0.1569-0.0155 0.1519-0.0073 0.0696-7e-4h23.998l0.1528 0.0039 0.1544 0.012 0.1558 0.0202 0.1501 0.0276 0.151 0.0356 0.1496 0.0436 0.1449 0.0506 0.1458 0.0595 0.1375 0.0644 0.1376 0.0735 0.1336 0.0807 0.1275 0.086 0.1235 0.0929 0.1202 0.1007 0.1124 0.1043 0.1081 0.1115 0.1017 0.1162 0.0959 0.1216 0.089 0.1261 0.0841 0.1329 0.0748 0.1329 0.0686 0.1383 0.0623 0.1438 0.0545 0.1456 0.0458 0.1453 0.0397 0.1528 0.0306 0.1493 0.0234 0.1526 0.0155 0.1569 0.0073 0.1519 7e-4 0.0696v23.998l-0.0039 0.1531-0.012 0.1544-0.0202 0.1558-0.0276 0.1501-0.0356 0.151-0.0436 0.1496-0.0506 0.1449-0.0595 0.1458-0.0644 0.1375-0.0735 0.1376-0.0807 0.1336-0.086 0.1275-0.0929 0.1235-0.1007 0.1202-0.1043 0.1124-0.1115 0.1081-0.1162 0.1017-0.1216 0.0959-0.1261 0.089-0.1329 0.0841-0.1329 0.0748-0.1383 0.0686-0.1438 0.0623-0.1456 0.0545-0.1453 0.0458-0.1528 0.0397-0.1493 0.0306-0.1526 0.0234-0.1569 0.0155-0.1519 0.0073-0.0696 7e-4z" fill="#0B3B0B" mask="url(#b)"/><g id="j" fill="#DCAA14" stroke="#DCAA14"><path d="m4048.7 3443.3-0.15307 0.03045-0.15307-0.03045-0.12977-0.08671-1.5365-1.5367-0.18518-0.19863-0.13773-0.17878-0.0515-0.08821-0.10309-0.24778-0.21382-0.66822-0.16677-0.35763-0.2208-0.31534-0.27221-0.27221-0.10076-0.07055-0.11403-0.12264-0.05383-0.15858 0.0158-0.16672 0.08268-0.14564 0.13505-0.09902 0.16376-0.03506 1.4297 0.00123 0.3635 0.03355 0.30166 0.07749 0.28583 0.12372 0.26295 0.16691 0.2336 0.20599 0.1985 0.24 0.15852 0.2681 0.11462 0.28959 0.06791 0.30396 0.02496 0.33289v2.3354l-0.03045 0.15308-0.08671 0.12976-0.12977 0.08671zm-27.18 20.5-0.15307 0.03045-0.15307-0.03045-0.12977-0.08671-0.08671-0.12976-0.03045-0.15308v-1.8779l0.02123-0.12857 0.06143-0.11493 0.09511-0.08908 0.6717-0.44883 0.25906-0.2126 1.3984-1.3984 0.2126-0.25905 0.17041-0.25502 0.11036-0.11036 0.14419-0.05972h0.15607l0.1442 0.05972 0.11035 0.11036 0.05973 0.1442 0.02155 0.10834 0.09728 0.32068 0.11297 0.27268 0.03043 0.14872-0.02717 0.14934-0.08085 0.12847-0.12291 0.0891-0.26037 0.12141-0.31534 0.2208-0.27221 0.27221-0.21945 0.31341-0.18723 0.4141-0.14777 0.46233-0.11268 0.32402-0.05353 0.10281-0.19943 0.27015-0.16645 0.17563-1.0288 1.0288-0.12977 0.08671zm2.5481 2.7316-0.15308-0.03045-0.12976-0.08671-0.08671-0.12977-0.03045-0.15307 0.03045-0.15307 0.08671-0.12977 1.0367-1.0365 0.19863-0.18518 0.17878-0.13773 0.17091-0.0865 0.15327-0.03163 0.15368 0.02961 0.13056 0.0863 0.08744 0.1298 0.03096 0.15341-0.03028 0.15354-0.08688 0.13018-0.1437 0.14369-0.21259 0.25905-0.35183 0.52661-0.16032 0.30127-0.08671 0.12976-0.12977 0.0867-0.15306 0.03044h-0.50293zm5.1814 0-0.1603-0.03352-0.13343-0.09496-0.08419-0.14047-0.02085-0.16244 0.046-0.15717 0.07411-0.13864 0.24236-0.585 0.0973-0.32067 0.12355-0.62117 0.03285-0.33351v-1.8049l-0.03285-0.33351-0.12353-0.62106-0.09728-0.32068-0.2424-0.58511-0.15788-0.29537-0.35178-0.52653-0.21258-0.25906-0.32871-0.32871-0.04976-0.06064-0.16463-0.24641-0.03694-0.06911-0.10993-0.26535-0.02703-0.10084-0.02278-0.17293 0.00422-0.13009 0.04576-0.12185 0.23753-0.4123 0.12962-0.2456 0.10481-0.24177 0.10106-0.37714 0.03355-0.3835-0.03355-0.3835-0.09964-0.37184-0.16269-0.3489-0.2208-0.31534-0.27221-0.27221-0.31534-0.2208-0.3489-0.16269-0.29047-0.07784-0.12614-0.05887-0.09832-0.09853-0.0586-0.12626-0.01179-0.1387 0.0384-0.42509-0.0335-0.38293-0.09964-0.37184-0.16269-0.3489-0.2208-0.31534-0.27221-0.27221-0.31534-0.2208-0.3489-0.16269-0.37184-0.09964-0.3835-0.03355-0.3835 0.03355-0.37184 0.09964-0.3489 0.16269-0.31534 0.2208-0.27221 0.27221-0.2208 0.31534-0.16269 0.3489-0.09964 0.37184-0.0166 0.18976-0.05207 0.16514-0.11698 0.12766 0.00136 0.02508 0.11662 0.12844 0.05126 0.16573 0.01815 0.22237 0.03163 0.26047 0.09233 0.63894 0.0337 0.45152 0.00547 0.34756-0.00764 0.08434-0.1051 0.52832-0.09765 0.25586-0.08671 0.12978-0.12977 0.08671-0.15307 0.03045-0.15308-0.03044-0.12977-0.08671-0.08671-0.12977-0.03045-0.15308v-2.6038l0.03762-0.16935 0.10578-0.1375 0.06347-0.03287-0.06399-0.03331-0.1054-0.13737-0.03748-0.16905v-7.8614l0.03045-0.15307 0.08671-0.12977 0.12977-0.08671 0.15307-0.03045h10.979l0.51007 0.05026 0.46398 0.09426 0.45245 0.13922 0.43644 0.1829 0.41664 0.22484 0.39245 0.26456 0.36467 0.30177 0.33332 0.33604 0.29878 0.3671 0.26138 0.39464 0.22139 0.41835 0.1794 0.43806 0.13549 0.45344 0.0905 0.46477 0.0445 0.47125-2.7e-4 0.37727-0.02756 0.70143-0.07004 0.52563-0.1029 0.41083-0.13107 0.34548-0.16582 0.33303-0.21163 0.36522-0.25469 0.42006-0.32477 0.56302-0.29023 0.55921-0.19812 0.47162-0.14167 0.51718-0.07138 0.53078v0.53556l0.07138 0.53078 0.14149 0.51653 0.20908 0.49306 0.27293 0.46079 0.33191 0.42031 0.38497 0.37231 0.43116 0.31768 0.46966 0.25738 0.49977 0.19249 0.52097 0.12415 0.53287 0.05361 0.53525-0.0179 0.5281-0.08908 0.51151-0.15867 0.4858-0.22544 0.45142-0.28817 0.40898-0.34577 0.35924-0.3972 0.3031-0.44153 0.24154-0.478 0.17568-0.50592 0.10667-0.52483 0.03577-0.53436-0.03577-0.53436-0.10667-0.52483-0.17805-0.51276-0.0963-0.20896-0.3246-0.62223-0.27922-0.48199-0.27324-0.4514-0.21995-0.3814-0.16979-0.34771-0.12861-0.35287-0.09712-0.40933-0.06494-0.51822-0.02484-0.67997v-0.47115l-0.01065-0.21672-0.06388-0.64816-0.03182-0.21444-0.12707-0.63876-0.05261-0.21008-0.189-0.6233-0.07321-0.20462-0.24929-0.60166-0.09254-0.19567-0.30695-0.57438-0.11162-0.18625-0.36188-0.54156-0.12915-0.17413-0.41314-0.50342-0.14565-0.1607-0.46051-0.46051-0.1607-0.14565-0.50342-0.41314-0.17413-0.12915-0.54156-0.36188-0.18625-0.11162-0.57438-0.30695-0.19567-0.09254-0.60166-0.24929-0.20462-0.07321-0.6233-0.189-0.21008-0.05261-0.63876-0.12707-0.21444-0.03182-0.64816-0.06388-0.21672-0.01065h-11.025l-0.14139-0.02582-0.12313-0.07414-0.08898-0.11287-0.04334-0.13704 0.0079-0.14351 0.03861-0.13973 0.12372-0.28583 0.16691-0.26295 0.20599-0.2336 0.24-0.1985 0.2681-0.15852 0.28959-0.11462 0.30396-0.06791 0.33289-0.02496h16.155l0.15308 0.03045 0.12976 0.08671 1.7376 1.7378 0.18518 0.19863 0.13773 0.17878 0.0515 0.08821 0.10309 0.24778 0.21382 0.66822 0.16677 0.35763 0.2208 0.31534 0.27221 0.27221 0.31341 0.21945 0.4141 0.18723 0.46233 0.14777 0.32402 0.11268 0.10281 0.05353 0.27015 0.19943 0.09115 0.08627 0.09134 0.12985 0.03364 0.15516-0.02937 0.15602-0.08775 0.13231-0.17239 0.17239-0.21252 0.25894-0.44277 0.66253-0.158 0.29553-0.30499 0.73628-0.09735 0.32087-0.17965 0.89823-0.10065 0.44606-0.08908 0.29756-0.10997 0.27547-0.27208 0.60154-0.10172 0.37961-0.03355 0.3835 0.03355 0.3835 0.09964 0.37184 0.16269 0.3489 0.2208 0.31534 0.27221 0.27221 0.31534 0.2208 0.3489 0.16269 0.37184 0.09964 0.3835 0.03355 0.3835-0.03355 0.37184-0.09964 0.3489-0.16269 0.31534-0.2208 0.27221-0.27221 0.2208-0.31534 0.16269-0.3489 0.09964-0.37184 0.03355-0.3835-0.03355-0.3835-0.10094-0.37672-0.10823-0.24818-0.14006-0.25955-0.25651-0.41755-0.04789-0.11502-0.01018-0.12418 0.019-0.21441 0.07728-0.3886 0.02277-0.07505 0.17597-0.42481 0.03698-0.06917 0.25556-0.38241 0.10509-0.11594 0.12977-0.08671 0.15307-0.03045 0.15307 0.03045 0.12977 0.08671 0.61203 0.61203 0.25904 0.21258 0.67172 0.44885 0.09511 0.08908 0.06143 0.11493 0.02123 0.12857v12.079l-0.03045 0.15307-0.08671 0.12977-0.12977 0.08671-0.15307 0.03045h-9.928l-0.52374-0.05158-0.47714-0.09685-0.46528-0.14322-0.44929-0.18815-0.42849-0.23123-0.40387-0.27216-0.37522-0.31042-1.2354-1.2354-0.33381-0.40676-0.26894-0.40598-0.22785-0.43035-0.18456-0.45065-0.13959-0.46658-0.09365-0.49322-0.02928-0.65614 0.03875-0.47785 0.08533-0.36443 0.12254-0.30879 0.1682-0.31096 0.22569-0.35485 0.27213-0.41214 0.35629-0.58207 0.29182-0.54883 0.1021-0.22 0.17788-0.51225 0.10667-0.52483 0.03577-0.53436-0.03577-0.53436-0.10667-0.52483-0.17568-0.50592-0.24154-0.478-0.3031-0.44153-0.35924-0.3972-0.40898-0.34577-0.45142-0.28817-0.4858-0.22544-0.51151-0.15867-0.5281-0.08908-0.53525-0.0179-0.53287 0.05361-0.52097 0.12415-0.49977 0.19249-0.46966 0.25738-0.43116 0.31768-0.38497 0.37231-0.33191 0.42031-0.27293 0.46079-0.20908 0.49306-0.14149 0.51653-0.07138 0.53078v0.53556l0.07138 0.53078 0.14141 0.51623 0.21766 0.51114 0.26703 0.5275 0.28815 0.53282 0.24712 0.44795 0.20385 0.3909 0.16621 0.3684 0.13882 0.38669 0.12011 0.45178 0.10451 0.5624 0.13216 1.0482 0.12901 0.64882 0.05283 0.21084 0.19309 0.63621 0.07291 0.20373 0.25439 0.61427 0.0928 0.19622 0.31344 0.58638 0.11143 0.18591 0.36939 0.55287 0.12923 0.17425 0.42183 0.51401 0.14565 0.1607 1.3889 1.3889 0.1607 0.14565 0.51401 0.42183 0.17425 0.12923 0.55287 0.36939 0.18591 0.11143 0.58638 0.31344 0.19622 0.0928 0.61427 0.25439 0.20373 0.07291 0.63621 0.19309 0.21084 0.05283 0.65212 0.12966 0.21438 0.03179 0.66176 0.06518 0.2166 0.01064h9.974l0.14139 0.02582 0.12313 0.07414 0.08898 0.11287 0.04334 0.13704-0.0079 0.14351-0.03861 0.13973-0.12372 0.28583-0.16691 0.26295-0.20599 0.2336-0.24 0.1985-0.2681 0.15852-0.28959 0.11462-0.30396 0.06791-0.33289 0.02496h-17.654zm19.45-23.232-0.15307 0.03045-0.15307-0.03045-0.12977-0.08671-1.5365-1.5367-0.18518-0.19863-0.13773-0.17878-0.0515-0.08821-0.10309-0.24778-0.21382-0.66822-0.16677-0.35763-0.2208-0.31534-0.27221-0.27221-0.10076-0.07055-0.11403-0.12264-0.05383-0.15858 0.0158-0.16672 0.08268-0.14564 0.13505-0.09902 0.16376-0.03506 1.4297 0.00123 0.3635 0.03355 0.30166 0.07749 0.28583 0.12372 0.26295 0.16691 0.2336 0.20599 0.1985 0.24 0.15852 0.2681 0.11462 0.28959 0.06791 0.30396 0.02496 0.33289v2.3354l-0.03045 0.15308-0.08671 0.12976-0.12977 0.08671zm-27.18 20.5-0.15307 0.03045-0.15307-0.03045-0.12977-0.08671-0.08671-0.12976-0.03045-0.15308v-1.8779l0.02123-0.12857 0.06143-0.11493 0.09511-0.08908 0.6717-0.44883 0.25906-0.2126 1.3984-1.3984 0.2126-0.25905 0.17041-0.25502 0.11036-0.11036 0.14419-0.05972h0.15607l0.1442 0.05972 0.11035 0.11036 0.05973 0.1442 0.02155 0.10834 0.09728 0.32068 0.11297 0.27268 0.03043 0.14872-0.02717 0.14934-0.08085 0.12847-0.12291 0.0891-0.26037 0.12141-0.31534 0.2208-0.27221 0.27221-0.21945 0.31341-0.18723 0.4141-0.14777 0.46233-0.11268 0.32402-0.05353 0.10281-0.19943 0.27015-0.16645 0.17563-1.0288 1.0288-0.12977 0.08671zm2.5481 2.7316-0.15308-0.03045-0.12976-0.08671-0.08671-0.12977-0.03045-0.15307 0.03045-0.15307 0.08671-0.12977 1.0367-1.0365 0.19863-0.18518 0.17878-0.13773 0.17091-0.0865 0.15327-0.03163 0.15368 0.02961 0.13056 0.0863 0.08744 0.1298 0.03096 0.15341-0.03028 0.15354-0.08688 0.13018-0.1437 0.14369-0.21259 0.25905-0.35183 0.52661-0.16032 0.30127-0.08671 0.12976-0.12977 0.0867-0.15306 0.03044h-0.50293zm5.1814 0-0.1603-0.03352-0.13343-0.09496-0.08419-0.14047-0.02085-0.16244 0.046-0.15717 0.07411-0.13864 0.24236-0.585 0.0973-0.32067 0.12355-0.62117 0.03285-0.33351v-1.8049l-0.03285-0.33351-0.12353-0.62106-0.09728-0.32068-0.2424-0.58511-0.15788-0.29537-0.35178-0.52653-0.21258-0.25906-0.32871-0.32871-0.04976-0.06064-0.16463-0.24641-0.03694-0.06911-0.10993-0.26535-0.02703-0.10084-0.02278-0.17293 0.00422-0.13009 0.04576-0.12185 0.23753-0.4123 0.12962-0.2456 0.10481-0.24177 0.10106-0.37714 0.03355-0.3835-0.03355-0.3835-0.09964-0.37184-0.16269-0.3489-0.2208-0.31534-0.27221-0.27221-0.31534-0.2208-0.3489-0.16269-0.29047-0.07784-0.12614-0.05887-0.09832-0.09853-0.0586-0.12626-0.01179-0.1387 0.0384-0.42509-0.0335-0.38293-0.09964-0.37184-0.16269-0.3489-0.2208-0.31534-0.27221-0.27221-0.31534-0.2208-0.3489-0.16269-0.37184-0.09964-0.3835-0.03355-0.3835 0.03355-0.37184 0.09964-0.3489 0.16269-0.31534 0.2208-0.27221 0.27221-0.2208 0.31534-0.16269 0.3489-0.09964 0.37184-0.0166 0.18976-0.05207 0.16514-0.11698 0.12766 0.00136 0.02508 0.11662 0.12844 0.05126 0.16573 0.01815 0.22237 0.03163 0.26047 0.09233 0.63894 0.0337 0.45152 0.00547 0.34756-0.00764 0.08434-0.1051 0.52832-0.09765 0.25586-0.08671 0.12978-0.12977 0.08671-0.15307 0.03045-0.15308-0.03044-0.12977-0.08671-0.08671-0.12977-0.03045-0.15308v-2.6038l0.03762-0.16935 0.10578-0.1375 0.06347-0.03287-0.06399-0.03331-0.1054-0.13737-0.03748-0.16905v-7.8614l0.03045-0.15307 0.08671-0.12977 0.12977-0.08671 0.15307-0.03045h10.979l0.51007 0.05026 0.46398 0.09426 0.45245 0.13922 0.43644 0.1829 0.41664 0.22484 0.39245 0.26456 0.36467 0.30177 0.33332 0.33604 0.29878 0.3671 0.26138 0.39464 0.22139 0.41835 0.1794 0.43806 0.13549 0.45344 0.0905 0.46477 0.0445 0.47125-2.7e-4 0.37727-0.02756 0.70143-0.07004 0.52563-0.1029 0.41083-0.13107 0.34548-0.16582 0.33303-0.21163 0.36522-0.25469 0.42006-0.32477 0.56302-0.29023 0.55921-0.19812 0.47162-0.14167 0.51718-0.07138 0.53078v0.53556l0.07138 0.53078 0.14149 0.51653 0.20908 0.49306 0.27293 0.46079 0.33191 0.42031 0.38497 0.37231 0.43116 0.31768 0.46966 0.25738 0.49977 0.19249 0.52097 0.12415 0.53287 0.05361 0.53525-0.0179 0.5281-0.08908 0.51151-0.15867 0.4858-0.22544 0.45142-0.28817 0.40898-0.34577 0.35924-0.3972 0.3031-0.44153 0.24154-0.478 0.17568-0.50592 0.10667-0.52483 0.03577-0.53436-0.03577-0.53436-0.10667-0.52483-0.17805-0.51276-0.0963-0.20896-0.3246-0.62223-0.27922-0.48199-0.27324-0.4514-0.21995-0.3814-0.16979-0.34771-0.12861-0.35287-0.09712-0.40933-0.06494-0.51822-0.02484-0.67997v-0.47115l-0.01065-0.21672-0.06388-0.64816-0.03182-0.21444-0.12707-0.63876-0.05261-0.21008-0.189-0.6233-0.07321-0.20462-0.24929-0.60166-0.09254-0.19567-0.30695-0.57438-0.11162-0.18625-0.36188-0.54156-0.12915-0.17413-0.41314-0.50342-0.14565-0.1607-0.46051-0.46051-0.1607-0.14565-0.50342-0.41314-0.17413-0.12915-0.54156-0.36188-0.18625-0.11162-0.57438-0.30695-0.19567-0.09254-0.60166-0.24929-0.20462-0.07321-0.6233-0.189-0.21008-0.05261-0.63876-0.12707-0.21444-0.03182-0.64816-0.06388-0.21672-0.01065h-11.025l-0.14139-0.02582-0.12313-0.07414-0.08898-0.11287-0.04334-0.13704 0.0079-0.14351 0.03861-0.13973 0.12372-0.28583 0.16691-0.26295 0.20599-0.2336 0.24-0.1985 0.2681-0.15852 0.28959-0.11462 0.30396-0.06791 0.33289-0.02496h16.155l0.15308 0.03045 0.12976 0.08671 1.7376 1.7378 0.18518 0.19863 0.13773 0.17878 0.0515 0.08821 0.10309 0.24778 0.21382 0.66822 0.16677 0.35763 0.2208 0.31534 0.27221 0.27221 0.31341 0.21945 0.4141 0.18723 0.46233 0.14777 0.32402 0.11268 0.10281 0.05353 0.27015 0.19943 0.09115 0.08627 0.09134 0.12985 0.03364 0.15516-0.02937 0.15602-0.08775 0.13231-0.17239 0.17239-0.21252 0.25894-0.44277 0.66253-0.158 0.29553-0.30499 0.73628-0.09735 0.32087-0.17965 0.89823-0.10065 0.44606-0.08908 0.29756-0.10997 0.27547-0.27208 0.60154-0.10172 0.37961-0.03355 0.3835 0.03355 0.3835 0.09964 0.37184 0.16269 0.3489 0.2208 0.31534 0.27221 0.27221 0.31534 0.2208 0.3489 0.16269 0.37184 0.09964 0.3835 0.03355 0.3835-0.03355 0.37184-0.09964 0.3489-0.16269 0.31534-0.2208 0.27221-0.27221 0.2208-0.31534 0.16269-0.3489 0.09964-0.37184 0.03355-0.3835-0.03355-0.3835-0.10094-0.37672-0.10823-0.24818-0.14006-0.25955-0.25651-0.41755-0.04789-0.11502-0.01018-0.12418 0.019-0.21441 0.07728-0.3886 0.02277-0.07505 0.17597-0.42481 0.03698-0.06917 0.25556-0.38241 0.10509-0.11594 0.12977-0.08671 0.15307-0.03045 0.15307 0.03045 0.12977 0.08671 0.61203 0.61203 0.25904 0.21258 0.67172 0.44885 0.09511 0.08908 0.06143 0.11493 0.02123 0.12857v12.079l-0.03045 0.15307-0.08671 0.12977-0.12977 0.08671-0.15307 0.03045h-9.928l-0.52374-0.05158-0.47714-0.09685-0.46528-0.14322-0.44929-0.18815-0.42849-0.23123-0.40387-0.27216-0.37522-0.31042-1.2354-1.2354-0.33381-0.40676-0.26894-0.40598-0.22785-0.43035-0.18456-0.45065-0.13959-0.46658-0.09365-0.49322-0.02928-0.65614 0.03875-0.47785 0.08533-0.36443 0.12254-0.30879 0.1682-0.31096 0.22569-0.35485 0.27213-0.41214 0.35629-0.58207 0.29182-0.54883 0.1021-0.22 0.17788-0.51225 0.10667-0.52483 0.03577-0.53436-0.03577-0.53436-0.10667-0.52483-0.17568-0.50592-0.24154-0.478-0.3031-0.44153-0.35924-0.3972-0.40898-0.34577-0.45142-0.28817-0.4858-0.22544-0.51151-0.15867-0.5281-0.08908-0.53525-0.0179-0.53287 0.05361-0.52097 0.12415-0.49977 0.19249-0.46966 0.25738-0.43116 0.31768-0.38497 0.37231-0.33191 0.42031-0.27293 0.46079-0.20908 0.49306-0.14149 0.51653-0.07138 0.53078v0.53556l0.07138 0.53078 0.14141 0.51623 0.21766 0.51114 0.26703 0.5275 0.28815 0.53282 0.24712 0.44795 0.20385 0.3909 0.16621 0.3684 0.13882 0.38669 0.12011 0.45178 0.10451 0.5624 0.13216 1.0482 0.12901 0.64882 0.05283 0.21084 0.19309 0.63621 0.07291 0.20373 0.25439 0.61427 0.0928 0.19622 0.31344 0.58638 0.11143 0.18591 0.36939 0.55287 0.12923 0.17425 0.42183 0.51401 0.14565 0.1607 1.3889 1.3889 0.1607 0.14565 0.51401 0.42183 0.17425 0.12923 0.55287 0.36939 0.18591 0.11143 0.58638 0.31344 0.19622 0.0928 0.61427 0.25439 0.20373 0.07291 0.63621 0.19309 0.21084 0.05283 0.65212 0.12966 0.21438 0.03179 0.66176 0.06518 0.2166 0.01064h9.974l0.14139 0.02582 0.12313 0.07414 0.08898 0.11287 0.04334 0.13704-0.0079 0.14351-0.03861 0.13973-0.12372 0.28583-0.16691 0.26295-0.20599 0.2336-0.24 0.1985-0.2681 0.15852-0.28959 0.11462-0.30396 0.06791-0.33289 0.02496h-17.654z" stroke-width="0"/><g fill="none"><g stroke-linecap="round"><polyline points="4014 3441.5 4014 3442.2 4014.3 3442.5 4032.5 3442.5 4033.2 3442.6 4033.8 3442.7 4034.5 3442.9 4035.1 3443.1 4035.7 3443.5 4036.2 3443.8 4036.8 3444.3 4037.2 3444.7 4037.7 3445.3 4038 3445.8 4038.4 3446.4 4038.6 3447 4038.8 3447.7 4038.9 3448.3 4039 3449 4039 3455.5" stroke-width="2" c_shapetype="line" layerid="1" locked="0" net=""/><polyline points="4058 3463.5 4058 3462.8 4057.7 3462.5 4038.5 3462.5 4037.9 3462.4 4037.2 3462.3 4036.5 3462.1 4035.9 3461.8 4035.3 3461.5 4034.7 3461.1 4034.2 3460.7 4032.8 3459.3 4032.4 3458.8 4032 3458.2 4031.7 3457.6 4031.4 3457 4031.2 3456.3 4031.1 3455.6 4031 3455 4031 3449.5" stroke-width="2" c_shapetype="line" layerid="1" locked="0" net=""/><g><polyline points="4038 3433.5 4038 3434.6 4038.3 3435.3 4044 3441" c_shapetype="line" layerid="1" locked="0" net=""/><polyline points="4044 3441 4047 3444 4049 3446 4049.7 3446.5 4050.6 3446.8 4051.5 3447 4055 3447" c_shapetype="line" layerid="1" locked="0" net=""/><polyline points="4044.5 3450 4044.5 3447.8 4044.7 3447 4045 3446.2 4045.4 3445.5 4047 3444" c_shapetype="line" layerid="1" locked="0" net=""/><polyline points="4030 3472.5 4027.4 3472.5 4026.7 3472.2 4026.3 3471.8 4026 3471.1 4026 3468.1 4026.1 3467.4 4026.4 3466.8 4026.8 3466.2 4027.2 3465.8 4027.6 3465.2 4027.9 3464.6 4028 3463.9 4028 3462.1 4027.9 3461.4 4027.6 3460.8 4027.2 3460.2 4026.8 3459.8 4026.4 3459.2 4026.1 3458.6 4026 3457.9 4026 3456" c_shapetype="line" layerid="1" locked="0" net=""/><polyline points="4017 3467.5 4018.9 3467.5 4019.6 3467.4 4020.2 3467.1 4020.8 3466.7 4025.5 3462" c_shapetype="line" layerid="1" locked="0" net=""/><polyline points="4024 3453 4023.5 3453 4023.5 3455.5 4023.3 3456.4 4023 3457.3 4022.5 3458 4021 3459.5 4020.3 3460 4019.4 3460.3 4018.5 3460.5 4010.5 3460.5 4010.2 3461.2 4023.5 3474.5" c_shapetype="line" layerid="1" locked="0" net=""/></g></g><path d="m4048 3445a1.5 1.5 0 0 0-2.1213-2.1328e-5" c_helper_type="arc2" c_shapetype="line" layerid="1" locked="0" net=""/><path d="m4045.9 3445a1.5 1.5 0 0 0 2.1328e-5 -2.1213" c_helper_type="arc2" c_shapetype="line" layerid="1" locked="0" net=""/></g><g stroke-width="0"><path d="m4038 3449.5-0.027861 0.75529-0.080146 0.62329-0.12728 0.5228-0.16925 0.45381-0.20607 0.41634-0.23774 0.41037-0.26425 0.43592-0.2856 0.49297-0.3018 0.58154h3e-13l2.7 2.8077 2.7-2.8077-0.3018-0.58154-0.2856-0.49297-0.26425-0.43592-0.23774-0.41037-0.20607-0.41634-0.16925-0.45381-0.12728-0.5228-0.080146-0.62329-0.027861-0.75529 1.4e-12 -1e-12z" c_shapetype="line" c_targetpad="" c_targetwire="" c_teardrop="" layerid="1" locked="0" net="" type="solid"/><path d="m4032 3455.4-0.036108-0.73551 0.043925-0.60812 0.11319-0.51118 0.17168-0.4447 0.21941-0.40867 0.25636-0.4031 0.28254-0.42798 0.29795-0.48332 0.30259-0.56911-7e-13 -1e-12 -2.7-2.8077-2.7 2.8077 0.30091 0.59445 0.27321 0.50411 0.24607 0.44579 0.21949 0.4195 0.19347 0.42523 0.16802 0.46298 0.14312 0.53275 0.11879 0.63455 0.095018 0.76837v5e-13z" c_shapetype="line" c_targetpad="" c_targetwire="" c_teardrop="" layerid="1" locked="0" net="" type="solid"/><path d="m4041.9 3439.7 0.20559 0.2172 0.15948 0.19358 0.12203 0.17749 0.093224 0.16894 0.073068 0.16792 0.06156 0.17444 0.058701 0.18849 0.06449 0.21007 0.078928 0.23919 2e-12 -9e-13 1.5578 0.030454-0.030454-1.5578-0.23919-0.078928-0.21007-0.06449-0.18849-0.058701-0.17444-0.06156-0.16792-0.073068-0.16894-0.093224-0.17749-0.12203-0.19358-0.15948-0.2172-0.20559-3e-13 -2e-12z" c_shapetype="line" c_targetpad="" c_targetwire="" c_teardrop="" layerid="1" locked="0" net="" type="solid"/><path d="m4046.1 3442.3-0.20559-0.2172-0.15948-0.19358-0.12203-0.17749-0.093224-0.16894-0.073068-0.16792-0.06156-0.17444-0.058701-0.18849-0.06449-0.21007-0.078928-0.23919-2e-12 9e-13 -1.5578-0.030454 0.030454 1.5578 0.23919 0.078928 0.21007 0.06449 0.18849 0.058701 0.17444 0.06156 0.16792 0.073068 0.16894 0.093224 0.17749 0.12203 0.19358 0.15948 0.2172 0.20559 3e-13 2e-12z" c_shapetype="line" c_targetpad="" c_targetwire="" c_teardrop="" layerid="1" locked="0" net="" type="solid"/><path d="m4044.1 3447.5-0.062502 0.3094-0.055501 0.25956-0.052318 0.22139-0.052953 0.19488-0.057407 0.18004-0.06568 0.17687-0.07777 0.18536-0.093679 0.20552-0.11341 0.23735 4e-13 1e-12 1.08 1.1231 1.08-1.1231-0.11312-0.21334-0.11223-0.1851-0.10611-0.16724-0.094793-0.15976-0.07826-0.16266-0.056515-0.17594-0.029559-0.19959 0.0026079-0.23363 0.039986-0.27804z" c_shapetype="line" c_targetpad="" c_targetwire="" c_teardrop="" layerid="1" locked="0" net="" type="solid"/><path d="m4026.6 3458.3-0.04114-0.27559-0.0067977-0.23242 0.023143-0.1993 0.048683-0.17622 0.069822-0.1632 0.08656-0.16022 0.098896-0.16729 0.10683-0.1844 0.11037-0.21157-1.08-1.1231-1.08 1.1231 0.11569 0.23812 0.098624 0.20519 0.084606 0.18426 0.073636 0.17532 0.065714 0.17838 0.060839 0.19343 0.059011 0.22049 0.060232 0.25953 0.064499 0.31057v5e-13z" c_shapetype="line" c_targetpad="" c_targetwire="" c_teardrop="" layerid="1" locked="0" net="" type="solid"/><path d="m4024.2 3464.1 0.2172-0.20559 0.19358-0.15948 0.17749-0.12203 0.16894-0.093224 0.16792-0.073068 0.17444-0.06156 0.18849-0.058701 0.21007-0.06449 0.23919-0.078928-9e-13 -2e-12 0.030454-1.5578-1.5578 0.030454-0.078928 0.23919-0.06449 0.21007-0.058701 0.18849-0.06156 0.17444-0.073068 0.16792-0.093224 0.16894-0.12203 0.17749-0.15948 0.19358-0.20559 0.2172-2e-12 3e-13z" c_shapetype="line" c_targetpad="" c_targetwire="" c_teardrop="" layerid="1" locked="0" net="" type="solid"/><path d="m4024 3455.3 0.0097375-0.23927 0.029059-0.20098 0.04815-0.16972 0.06701-0.14549 0.08564-0.12829 0.10404-0.11811 0.12221-0.11496 0.14015-0.11883 0.15785-0.12973 1e-12 -1.8e-12 -0.51384-1.4709-1.4497 0.57094 0.012122 0.28834 0.021158 0.24641 0.0274 0.21853 0.030848 0.20469 0.031503 0.2049 0.029365 0.21914 0.024434 0.24744 0.016709 0.28977 0.0061903 0.34616v6e-13z" c_shapetype="line" c_targetpad="" c_targetwire="" c_teardrop="" layerid="1" locked="0" net="" type="solid"/></g><g c_etype="pinpart" c_height="6" c_origin="4039,3455.5" c_partid="part_pad" c_rotation="0" c_width="6" layerid="11" net=""><ellipse cx="4039" cy="3455.5" rx="3" ry="3" stroke-width="0" c_etype="pad_shell"/></g><g c_etype="pinpart" c_height="6" c_origin="4031,3449.5" c_partid="part_pad" c_rotation="0" c_width="6" layerid="11" net=""><ellipse cx="4031" cy="3449.5" rx="3" ry="3" stroke-width="0" c_etype="pad_shell"/></g><g c_etype="pinpart" c_origin="4044,3441" c_partid="part_via" c_rotation="undefined" layerid="11" net=""><circle cx="4044" cy="3441" r="1.2" stroke-width="0"/></g><g c_etype="pinpart" c_origin="4044.5,3450" c_partid="part_via" c_rotation="undefined" layerid="11" net=""><circle cx="4044.5" cy="3450" r="1.2" stroke-width="0"/></g><g c_etype="pinpart" c_origin="4024,3453" c_partid="part_via" c_rotation="undefined" layerid="11" net=""><circle cx="4024" cy="3453" r="1.2" stroke-width="0"/></g><g c_etype="pinpart" c_origin="4026,3456" c_partid="part_via" c_rotation="undefined" layerid="11" net=""><circle cx="4026" cy="3456" r="1.2" stroke-width="0"/></g><g c_etype="pinpart" c_origin="4025.5,3462" c_partid="part_via" c_rotation="undefined" layerid="11" net=""><circle cx="4025.5" cy="3462" r="1.2" stroke-width="0"/></g></g><g id="k" fill="#00BE00" mask="url(#a)" stroke="#00BE00"><path d="m4048.7 3443.3-0.15307 0.03045-0.15307-0.03045-0.12977-0.08671-1.5365-1.5367-0.18518-0.19863-0.13773-0.17878-0.0515-0.08821-0.10309-0.24778-0.21382-0.66822-0.16677-0.35763-0.2208-0.31534-0.27221-0.27221-0.10076-0.07055-0.11403-0.12264-0.05383-0.15858 0.0158-0.16672 0.08268-0.14564 0.13505-0.09902 0.16376-0.03506 1.4297 0.00123 0.3635 0.03355 0.30166 0.07749 0.28583 0.12372 0.26295 0.16691 0.2336 0.20599 0.1985 0.24 0.15852 0.2681 0.11462 0.28959 0.06791 0.30396 0.02496 0.33289v2.3354l-0.03045 0.15308-0.08671 0.12976-0.12977 0.08671zm-27.18 20.5-0.15307 0.03045-0.15307-0.03045-0.12977-0.08671-0.08671-0.12976-0.03045-0.15308v-1.8779l0.02123-0.12857 0.06143-0.11493 0.09511-0.08908 0.6717-0.44883 0.25906-0.2126 1.3984-1.3984 0.2126-0.25905 0.17041-0.25502 0.11036-0.11036 0.14419-0.05972h0.15607l0.1442 0.05972 0.11035 0.11036 0.05973 0.1442 0.02155 0.10834 0.09728 0.32068 0.11297 0.27268 0.03043 0.14872-0.02717 0.14934-0.08085 0.12847-0.12291 0.0891-0.26037 0.12141-0.31534 0.2208-0.27221 0.27221-0.21945 0.31341-0.18723 0.4141-0.14777 0.46233-0.11268 0.32402-0.05353 0.10281-0.19943 0.27015-0.16645 0.17563-1.0288 1.0288-0.12977 0.08671zm2.5481 2.7316-0.15308-0.03045-0.12976-0.08671-0.08671-0.12977-0.03045-0.15307 0.03045-0.15307 0.08671-0.12977 1.0367-1.0365 0.19863-0.18518 0.17878-0.13773 0.17091-0.0865 0.15327-0.03163 0.15368 0.02961 0.13056 0.0863 0.08744 0.1298 0.03096 0.15341-0.03028 0.15354-0.08688 0.13018-0.1437 0.14369-0.21259 0.25905-0.35183 0.52661-0.16032 0.30127-0.08671 0.12976-0.12977 0.0867-0.15306 0.03044h-0.50293zm5.1814 0-0.1603-0.03352-0.13343-0.09496-0.08419-0.14047-0.02085-0.16244 0.046-0.15717 0.07411-0.13864 0.24236-0.585 0.0973-0.32067 0.12355-0.62117 0.03285-0.33351v-1.8049l-0.03285-0.33351-0.12353-0.62106-0.09728-0.32068-0.2424-0.58511-0.15788-0.29537-0.35178-0.52653-0.21258-0.25906-0.32871-0.32871-0.04976-0.06064-0.16463-0.24641-0.03694-0.06911-0.10993-0.26535-0.02703-0.10084-0.02278-0.17293 0.00422-0.13009 0.04576-0.12185 0.23753-0.4123 0.12962-0.2456 0.10481-0.24177 0.10106-0.37714 0.03355-0.3835-0.03355-0.3835-0.09964-0.37184-0.16269-0.3489-0.2208-0.31534-0.27221-0.27221-0.31534-0.2208-0.3489-0.16269-0.29047-0.07784-0.12614-0.05887-0.09832-0.09853-0.0586-0.12626-0.01179-0.1387 0.0384-0.42509-0.0335-0.38293-0.09964-0.37184-0.16269-0.3489-0.2208-0.31534-0.27221-0.27221-0.31534-0.2208-0.3489-0.16269-0.37184-0.09964-0.3835-0.03355-0.3835 0.03355-0.37184 0.09964-0.3489 0.16269-0.31534 0.2208-0.27221 0.27221-0.2208 0.31534-0.16269 0.3489-0.09964 0.37184-0.0166 0.18976-0.05207 0.16514-0.11698 0.12766 0.00136 0.02508 0.11662 0.12844 0.05126 0.16573 0.01815 0.22237 0.03163 0.26047 0.09233 0.63894 0.0337 0.45152 0.00547 0.34756-0.00764 0.08434-0.1051 0.52832-0.09765 0.25586-0.08671 0.12978-0.12977 0.08671-0.15307 0.03045-0.15308-0.03044-0.12977-0.08671-0.08671-0.12977-0.03045-0.15308v-2.6038l0.03762-0.16935 0.10578-0.1375 0.06347-0.03287-0.06399-0.03331-0.1054-0.13737-0.03748-0.16905v-7.8614l0.03045-0.15307 0.08671-0.12977 0.12977-0.08671 0.15307-0.03045h10.979l0.51007 0.05026 0.46398 0.09426 0.45245 0.13922 0.43644 0.1829 0.41664 0.22484 0.39245 0.26456 0.36467 0.30177 0.33332 0.33604 0.29878 0.3671 0.26138 0.39464 0.22139 0.41835 0.1794 0.43806 0.13549 0.45344 0.0905 0.46477 0.0445 0.47125-2.7e-4 0.37727-0.02756 0.70143-0.07004 0.52563-0.1029 0.41083-0.13107 0.34548-0.16582 0.33303-0.21163 0.36522-0.25469 0.42006-0.32477 0.56302-0.29023 0.55921-0.19812 0.47162-0.14167 0.51718-0.07138 0.53078v0.53556l0.07138 0.53078 0.14149 0.51653 0.20908 0.49306 0.27293 0.46079 0.33191 0.42031 0.38497 0.37231 0.43116 0.31768 0.46966 0.25738 0.49977 0.19249 0.52097 0.12415 0.53287 0.05361 0.53525-0.0179 0.5281-0.08908 0.51151-0.15867 0.4858-0.22544 0.45142-0.28817 0.40898-0.34577 0.35924-0.3972 0.3031-0.44153 0.24154-0.478 0.17568-0.50592 0.10667-0.52483 0.03577-0.53436-0.03577-0.53436-0.10667-0.52483-0.17805-0.51276-0.0963-0.20896-0.3246-0.62223-0.27922-0.48199-0.27324-0.4514-0.21995-0.3814-0.16979-0.34771-0.12861-0.35287-0.09712-0.40933-0.06494-0.51822-0.02484-0.67997v-0.47115l-0.01065-0.21672-0.06388-0.64816-0.03182-0.21444-0.12707-0.63876-0.05261-0.21008-0.189-0.6233-0.07321-0.20462-0.24929-0.60166-0.09254-0.19567-0.30695-0.57438-0.11162-0.18625-0.36188-0.54156-0.12915-0.17413-0.41314-0.50342-0.14565-0.1607-0.46051-0.46051-0.1607-0.14565-0.50342-0.41314-0.17413-0.12915-0.54156-0.36188-0.18625-0.11162-0.57438-0.30695-0.19567-0.09254-0.60166-0.24929-0.20462-0.07321-0.6233-0.189-0.21008-0.05261-0.63876-0.12707-0.21444-0.03182-0.64816-0.06388-0.21672-0.01065h-11.025l-0.14139-0.02582-0.12313-0.07414-0.08898-0.11287-0.04334-0.13704 0.0079-0.14351 0.03861-0.13973 0.12372-0.28583 0.16691-0.26295 0.20599-0.2336 0.24-0.1985 0.2681-0.15852 0.28959-0.11462 0.30396-0.06791 0.33289-0.02496h16.155l0.15308 0.03045 0.12976 0.08671 1.7376 1.7378 0.18518 0.19863 0.13773 0.17878 0.0515 0.08821 0.10309 0.24778 0.21382 0.66822 0.16677 0.35763 0.2208 0.31534 0.27221 0.27221 0.31341 0.21945 0.4141 0.18723 0.46233 0.14777 0.32402 0.11268 0.10281 0.05353 0.27015 0.19943 0.09115 0.08627 0.09134 0.12985 0.03364 0.15516-0.02937 0.15602-0.08775 0.13231-0.17239 0.17239-0.21252 0.25894-0.44277 0.66253-0.158 0.29553-0.30499 0.73628-0.09735 0.32087-0.17965 0.89823-0.10065 0.44606-0.08908 0.29756-0.10997 0.27547-0.27208 0.60154-0.10172 0.37961-0.03355 0.3835 0.03355 0.3835 0.09964 0.37184 0.16269 0.3489 0.2208 0.31534 0.27221 0.27221 0.31534 0.2208 0.3489 0.16269 0.37184 0.09964 0.3835 0.03355 0.3835-0.03355 0.37184-0.09964 0.3489-0.16269 0.31534-0.2208 0.27221-0.27221 0.2208-0.31534 0.16269-0.3489 0.09964-0.37184 0.03355-0.3835-0.03355-0.3835-0.10094-0.37672-0.10823-0.24818-0.14006-0.25955-0.25651-0.41755-0.04789-0.11502-0.01018-0.12418 0.019-0.21441 0.07728-0.3886 0.02277-0.07505 0.17597-0.42481 0.03698-0.06917 0.25556-0.38241 0.10509-0.11594 0.12977-0.08671 0.15307-0.03045 0.15307 0.03045 0.12977 0.08671 0.61203 0.61203 0.25904 0.21258 0.67172 0.44885 0.09511 0.08908 0.06143 0.11493 0.02123 0.12857v12.079l-0.03045 0.15307-0.08671 0.12977-0.12977 0.08671-0.15307 0.03045h-9.928l-0.52374-0.05158-0.47714-0.09685-0.46528-0.14322-0.44929-0.18815-0.42849-0.23123-0.40387-0.27216-0.37522-0.31042-1.2354-1.2354-0.33381-0.40676-0.26894-0.40598-0.22785-0.43035-0.18456-0.45065-0.13959-0.46658-0.09365-0.49322-0.02928-0.65614 0.03875-0.47785 0.08533-0.36443 0.12254-0.30879 0.1682-0.31096 0.22569-0.35485 0.27213-0.41214 0.35629-0.58207 0.29182-0.54883 0.1021-0.22 0.17788-0.51225 0.10667-0.52483 0.03577-0.53436-0.03577-0.53436-0.10667-0.52483-0.17568-0.50592-0.24154-0.478-0.3031-0.44153-0.35924-0.3972-0.40898-0.34577-0.45142-0.28817-0.4858-0.22544-0.51151-0.15867-0.5281-0.08908-0.53525-0.0179-0.53287 0.05361-0.52097 0.12415-0.49977 0.19249-0.46966 0.25738-0.43116 0.31768-0.38497 0.37231-0.33191 0.42031-0.27293 0.46079-0.20908 0.49306-0.14149 0.51653-0.07138 0.53078v0.53556l0.07138 0.53078 0.14141 0.51623 0.21766 0.51114 0.26703 0.5275 0.28815 0.53282 0.24712 0.44795 0.20385 0.3909 0.16621 0.3684 0.13882 0.38669 0.12011 0.45178 0.10451 0.5624 0.13216 1.0482 0.12901 0.64882 0.05283 0.21084 0.19309 0.63621 0.07291 0.20373 0.25439 0.61427 0.0928 0.19622 0.31344 0.58638 0.11143 0.18591 0.36939 0.55287 0.12923 0.17425 0.42183 0.51401 0.14565 0.1607 1.3889 1.3889 0.1607 0.14565 0.51401 0.42183 0.17425 0.12923 0.55287 0.36939 0.18591 0.11143 0.58638 0.31344 0.19622 0.0928 0.61427 0.25439 0.20373 0.07291 0.63621 0.19309 0.21084 0.05283 0.65212 0.12966 0.21438 0.03179 0.66176 0.06518 0.2166 0.01064h9.974l0.14139 0.02582 0.12313 0.07414 0.08898 0.11287 0.04334 0.13704-0.0079 0.14351-0.03861 0.13973-0.12372 0.28583-0.16691 0.26295-0.20599 0.2336-0.24 0.1985-0.2681 0.15852-0.28959 0.11462-0.30396 0.06791-0.33289 0.02496h-17.654zm19.45-23.232-0.15307 0.03045-0.15307-0.03045-0.12977-0.08671-1.5365-1.5367-0.18518-0.19863-0.13773-0.17878-0.0515-0.08821-0.10309-0.24778-0.21382-0.66822-0.16677-0.35763-0.2208-0.31534-0.27221-0.27221-0.10076-0.07055-0.11403-0.12264-0.05383-0.15858 0.0158-0.16672 0.08268-0.14564 0.13505-0.09902 0.16376-0.03506 1.4297 0.00123 0.3635 0.03355 0.30166 0.07749 0.28583 0.12372 0.26295 0.16691 0.2336 0.20599 0.1985 0.24 0.15852 0.2681 0.11462 0.28959 0.06791 0.30396 0.02496 0.33289v2.3354l-0.03045 0.15308-0.08671 0.12976-0.12977 0.08671zm-27.18 20.5-0.15307 0.03045-0.15307-0.03045-0.12977-0.08671-0.08671-0.12976-0.03045-0.15308v-1.8779l0.02123-0.12857 0.06143-0.11493 0.09511-0.08908 0.6717-0.44883 0.25906-0.2126 1.3984-1.3984 0.2126-0.25905 0.17041-0.25502 0.11036-0.11036 0.14419-0.05972h0.15607l0.1442 0.05972 0.11035 0.11036 0.05973 0.1442 0.02155 0.10834 0.09728 0.32068 0.11297 0.27268 0.03043 0.14872-0.02717 0.14934-0.08085 0.12847-0.12291 0.0891-0.26037 0.12141-0.31534 0.2208-0.27221 0.27221-0.21945 0.31341-0.18723 0.4141-0.14777 0.46233-0.11268 0.32402-0.05353 0.10281-0.19943 0.27015-0.16645 0.17563-1.0288 1.0288-0.12977 0.08671zm2.5481 2.7316-0.15308-0.03045-0.12976-0.08671-0.08671-0.12977-0.03045-0.15307 0.03045-0.15307 0.08671-0.12977 1.0367-1.0365 0.19863-0.18518 0.17878-0.13773 0.17091-0.0865 0.15327-0.03163 0.15368 0.02961 0.13056 0.0863 0.08744 0.1298 0.03096 0.15341-0.03028 0.15354-0.08688 0.13018-0.1437 0.14369-0.21259 0.25905-0.35183 0.52661-0.16032 0.30127-0.08671 0.12976-0.12977 0.0867-0.15306 0.03044h-0.50293zm5.1814 0-0.1603-0.03352-0.13343-0.09496-0.08419-0.14047-0.02085-0.16244 0.046-0.15717 0.07411-0.13864 0.24236-0.585 0.0973-0.32067 0.12355-0.62117 0.03285-0.33351v-1.8049l-0.03285-0.33351-0.12353-0.62106-0.09728-0.32068-0.2424-0.58511-0.15788-0.29537-0.35178-0.52653-0.21258-0.25906-0.32871-0.32871-0.04976-0.06064-0.16463-0.24641-0.03694-0.06911-0.10993-0.26535-0.02703-0.10084-0.02278-0.17293 0.00422-0.13009 0.04576-0.12185 0.23753-0.4123 0.12962-0.2456 0.10481-0.24177 0.10106-0.37714 0.03355-0.3835-0.03355-0.3835-0.09964-0.37184-0.16269-0.3489-0.2208-0.31534-0.27221-0.27221-0.31534-0.2208-0.3489-0.16269-0.29047-0.07784-0.12614-0.05887-0.09832-0.09853-0.0586-0.12626-0.01179-0.1387 0.0384-0.42509-0.0335-0.38293-0.09964-0.37184-0.16269-0.3489-0.2208-0.31534-0.27221-0.27221-0.31534-0.2208-0.3489-0.16269-0.37184-0.09964-0.3835-0.03355-0.3835 0.03355-0.37184 0.09964-0.3489 0.16269-0.31534 0.2208-0.27221 0.27221-0.2208 0.31534-0.16269 0.3489-0.09964 0.37184-0.0166 0.18976-0.05207 0.16514-0.11698 0.12766 0.00136 0.02508 0.11662 0.12844 0.05126 0.16573 0.01815 0.22237 0.03163 0.26047 0.09233 0.63894 0.0337 0.45152 0.00547 0.34756-0.00764 0.08434-0.1051 0.52832-0.09765 0.25586-0.08671 0.12978-0.12977 0.08671-0.15307 0.03045-0.15308-0.03044-0.12977-0.08671-0.08671-0.12977-0.03045-0.15308v-2.6038l0.03762-0.16935 0.10578-0.1375 0.06347-0.03287-0.06399-0.03331-0.1054-0.13737-0.03748-0.16905v-7.8614l0.03045-0.15307 0.08671-0.12977 0.12977-0.08671 0.15307-0.03045h10.979l0.51007 0.05026 0.46398 0.09426 0.45245 0.13922 0.43644 0.1829 0.41664 0.22484 0.39245 0.26456 0.36467 0.30177 0.33332 0.33604 0.29878 0.3671 0.26138 0.39464 0.22139 0.41835 0.1794 0.43806 0.13549 0.45344 0.0905 0.46477 0.0445 0.47125-2.7e-4 0.37727-0.02756 0.70143-0.07004 0.52563-0.1029 0.41083-0.13107 0.34548-0.16582 0.33303-0.21163 0.36522-0.25469 0.42006-0.32477 0.56302-0.29023 0.55921-0.19812 0.47162-0.14167 0.51718-0.07138 0.53078v0.53556l0.07138 0.53078 0.14149 0.51653 0.20908 0.49306 0.27293 0.46079 0.33191 0.42031 0.38497 0.37231 0.43116 0.31768 0.46966 0.25738 0.49977 0.19249 0.52097 0.12415 0.53287 0.05361 0.53525-0.0179 0.5281-0.08908 0.51151-0.15867 0.4858-0.22544 0.45142-0.28817 0.40898-0.34577 0.35924-0.3972 0.3031-0.44153 0.24154-0.478 0.17568-0.50592 0.10667-0.52483 0.03577-0.53436-0.03577-0.53436-0.10667-0.52483-0.17805-0.51276-0.0963-0.20896-0.3246-0.62223-0.27922-0.48199-0.27324-0.4514-0.21995-0.3814-0.16979-0.34771-0.12861-0.35287-0.09712-0.40933-0.06494-0.51822-0.02484-0.67997v-0.47115l-0.01065-0.21672-0.06388-0.64816-0.03182-0.21444-0.12707-0.63876-0.05261-0.21008-0.189-0.6233-0.07321-0.20462-0.24929-0.60166-0.09254-0.19567-0.30695-0.57438-0.11162-0.18625-0.36188-0.54156-0.12915-0.17413-0.41314-0.50342-0.14565-0.1607-0.46051-0.46051-0.1607-0.14565-0.50342-0.41314-0.17413-0.12915-0.54156-0.36188-0.18625-0.11162-0.57438-0.30695-0.19567-0.09254-0.60166-0.24929-0.20462-0.07321-0.6233-0.189-0.21008-0.05261-0.63876-0.12707-0.21444-0.03182-0.64816-0.06388-0.21672-0.01065h-11.025l-0.14139-0.02582-0.12313-0.07414-0.08898-0.11287-0.04334-0.13704 0.0079-0.14351 0.03861-0.13973 0.12372-0.28583 0.16691-0.26295 0.20599-0.2336 0.24-0.1985 0.2681-0.15852 0.28959-0.11462 0.30396-0.06791 0.33289-0.02496h16.155l0.15308 0.03045 0.12976 0.08671 1.7376 1.7378 0.18518 0.19863 0.13773 0.17878 0.0515 0.08821 0.10309 0.24778 0.21382 0.66822 0.16677 0.35763 0.2208 0.31534 0.27221 0.27221 0.31341 0.21945 0.4141 0.18723 0.46233 0.14777 0.32402 0.11268 0.10281 0.05353 0.27015 0.19943 0.09115 0.08627 0.09134 0.12985 0.03364 0.15516-0.02937 0.15602-0.08775 0.13231-0.17239 0.17239-0.21252 0.25894-0.44277 0.66253-0.158 0.29553-0.30499 0.73628-0.09735 0.32087-0.17965 0.89823-0.10065 0.44606-0.08908 0.29756-0.10997 0.27547-0.27208 0.60154-0.10172 0.37961-0.03355 0.3835 0.03355 0.3835 0.09964 0.37184 0.16269 0.3489 0.2208 0.31534 0.27221 0.27221 0.31534 0.2208 0.3489 0.16269 0.37184 0.09964 0.3835 0.03355 0.3835-0.03355 0.37184-0.09964 0.3489-0.16269 0.31534-0.2208 0.27221-0.27221 0.2208-0.31534 0.16269-0.3489 0.09964-0.37184 0.03355-0.3835-0.03355-0.3835-0.10094-0.37672-0.10823-0.24818-0.14006-0.25955-0.25651-0.41755-0.04789-0.11502-0.01018-0.12418 0.019-0.21441 0.07728-0.3886 0.02277-0.07505 0.17597-0.42481 0.03698-0.06917 0.25556-0.38241 0.10509-0.11594 0.12977-0.08671 0.15307-0.03045 0.15307 0.03045 0.12977 0.08671 0.61203 0.61203 0.25904 0.21258 0.67172 0.44885 0.09511 0.08908 0.06143 0.11493 0.02123 0.12857v12.079l-0.03045 0.15307-0.08671 0.12977-0.12977 0.08671-0.15307 0.03045h-9.928l-0.52374-0.05158-0.47714-0.09685-0.46528-0.14322-0.44929-0.18815-0.42849-0.23123-0.40387-0.27216-0.37522-0.31042-1.2354-1.2354-0.33381-0.40676-0.26894-0.40598-0.22785-0.43035-0.18456-0.45065-0.13959-0.46658-0.09365-0.49322-0.02928-0.65614 0.03875-0.47785 0.08533-0.36443 0.12254-0.30879 0.1682-0.31096 0.22569-0.35485 0.27213-0.41214 0.35629-0.58207 0.29182-0.54883 0.1021-0.22 0.17788-0.51225 0.10667-0.52483 0.03577-0.53436-0.03577-0.53436-0.10667-0.52483-0.17568-0.50592-0.24154-0.478-0.3031-0.44153-0.35924-0.3972-0.40898-0.34577-0.45142-0.28817-0.4858-0.22544-0.51151-0.15867-0.5281-0.08908-0.53525-0.0179-0.53287 0.05361-0.52097 0.12415-0.49977 0.19249-0.46966 0.25738-0.43116 0.31768-0.38497 0.37231-0.33191 0.42031-0.27293 0.46079-0.20908 0.49306-0.14149 0.51653-0.07138 0.53078v0.53556l0.07138 0.53078 0.14141 0.51623 0.21766 0.51114 0.26703 0.5275 0.28815 0.53282 0.24712 0.44795 0.20385 0.3909 0.16621 0.3684 0.13882 0.38669 0.12011 0.45178 0.10451 0.5624 0.13216 1.0482 0.12901 0.64882 0.05283 0.21084 0.19309 0.63621 0.07291 0.20373 0.25439 0.61427 0.0928 0.19622 0.31344 0.58638 0.11143 0.18591 0.36939 0.55287 0.12923 0.17425 0.42183 0.51401 0.14565 0.1607 1.3889 1.3889 0.1607 0.14565 0.51401 0.42183 0.17425 0.12923 0.55287 0.36939 0.18591 0.11143 0.58638 0.31344 0.19622 0.0928 0.61427 0.25439 0.20373 0.07291 0.63621 0.19309 0.21084 0.05283 0.65212 0.12966 0.21438 0.03179 0.66176 0.06518 0.2166 0.01064h9.974l0.14139 0.02582 0.12313 0.07414 0.08898 0.11287 0.04334 0.13704-0.0079 0.14351-0.03861 0.13973-0.12372 0.28583-0.16691 0.26295-0.20599 0.2336-0.24 0.1985-0.2681 0.15852-0.28959 0.11462-0.30396 0.06791-0.33289 0.02496h-17.654z" stroke-width="0"/><g fill="none"><g stroke-linecap="round"><polyline points="4014 3441.5 4014 3442.2 4014.3 3442.5 4032.5 3442.5 4033.2 3442.6 4033.8 3442.7 4034.5 3442.9 4035.1 3443.1 4035.7 3443.5 4036.2 3443.8 4036.8 3444.3 4037.2 3444.7 4037.7 3445.3 4038 3445.8 4038.4 3446.4 4038.6 3447 4038.8 3447.7 4038.9 3448.3 4039 3449 4039 3455.5" stroke-width="2" c_shapetype="line" layerid="1" locked="0" net=""/><polyline points="4058 3463.5 4058 3462.8 4057.7 3462.5 4038.5 3462.5 4037.9 3462.4 4037.2 3462.3 4036.5 3462.1 4035.9 3461.8 4035.3 3461.5 4034.7 3461.1 4034.2 3460.7 4032.8 3459.3 4032.4 3458.8 4032 3458.2 4031.7 3457.6 4031.4 3457 4031.2 3456.3 4031.1 3455.6 4031 3455 4031 3449.5" stroke-width="2" c_shapetype="line" layerid="1" locked="0" net=""/><g><polyline points="4038 3433.5 4038 3434.6 4038.3 3435.3 4044 3441" c_shapetype="line" layerid="1" locked="0" net=""/><polyline points="4044 3441 4047 3444 4049 3446 4049.7 3446.5 4050.6 3446.8 4051.5 3447 4055 3447" c_shapetype="line" layerid="1" locked="0" net=""/><polyline points="4044.5 3450 4044.5 3447.8 4044.7 3447 4045 3446.2 4045.4 3445.5 4047 3444" c_shapetype="line" layerid="1" locked="0" net=""/><polyline points="4030 3472.5 4027.4 3472.5 4026.7 3472.2 4026.3 3471.8 4026 3471.1 4026 3468.1 4026.1 3467.4 4026.4 3466.8 4026.8 3466.2 4027.2 3465.8 4027.6 3465.2 4027.9 3464.6 4028 3463.9 4028 3462.1 4027.9 3461.4 4027.6 3460.8 4027.2 3460.2 4026.8 3459.8 4026.4 3459.2 4026.1 3458.6 4026 3457.9 4026 3456" c_shapetype="line" layerid="1" locked="0" net=""/><polyline points="4017 3467.5 4018.9 3467.5 4019.6 3467.4 4020.2 3467.1 4020.8 3466.7 4025.5 3462" c_shapetype="line" layerid="1" locked="0" net=""/><polyline points="4024 3453 4023.5 3453 4023.5 3455.5 4023.3 3456.4 4023 3457.3 4022.5 3458 4021 3459.5 4020.3 3460 4019.4 3460.3 4018.5 3460.5 4010.5 3460.5 4010.2 3461.2 4023.5 3474.5" c_shapetype="line" layerid="1" locked="0" net=""/></g></g><path d="m4048 3445a1.5 1.5 0 0 0-2.1213-2.1328e-5" c_helper_type="arc2" c_shapetype="line" layerid="1" locked="0" net=""/><path d="m4045.9 3445a1.5 1.5 0 0 0 2.1328e-5 -2.1213" c_helper_type="arc2" c_shapetype="line" layerid="1" locked="0" net=""/></g><g stroke-width="0"><path d="m4038 3449.5-0.027861 0.75529-0.080146 0.62329-0.12728 0.5228-0.16925 0.45381-0.20607 0.41634-0.23774 0.41037-0.26425 0.43592-0.2856 0.49297-0.3018 0.58154h3e-13l2.7 2.8077 2.7-2.8077-0.3018-0.58154-0.2856-0.49297-0.26425-0.43592-0.23774-0.41037-0.20607-0.41634-0.16925-0.45381-0.12728-0.5228-0.080146-0.62329-0.027861-0.75529 1.4e-12 -1e-12z" c_shapetype="line" c_targetpad="" c_targetwire="" c_teardrop="" layerid="1" locked="0" net="" type="solid"/><path d="m4032 3455.4-0.036108-0.73551 0.043925-0.60812 0.11319-0.51118 0.17168-0.4447 0.21941-0.40867 0.25636-0.4031 0.28254-0.42798 0.29795-0.48332 0.30259-0.56911-7e-13 -1e-12 -2.7-2.8077-2.7 2.8077 0.30091 0.59445 0.27321 0.50411 0.24607 0.44579 0.21949 0.4195 0.19347 0.42523 0.16802 0.46298 0.14312 0.53275 0.11879 0.63455 0.095018 0.76837v5e-13z" c_shapetype="line" c_targetpad="" c_targetwire="" c_teardrop="" layerid="1" locked="0" net="" type="solid"/><path d="m4041.9 3439.7 0.20559 0.2172 0.15948 0.19358 0.12203 0.17749 0.093224 0.16894 0.073068 0.16792 0.06156 0.17444 0.058701 0.18849 0.06449 0.21007 0.078928 0.23919 2e-12 -9e-13 1.5578 0.030454-0.030454-1.5578-0.23919-0.078928-0.21007-0.06449-0.18849-0.058701-0.17444-0.06156-0.16792-0.073068-0.16894-0.093224-0.17749-0.12203-0.19358-0.15948-0.2172-0.20559-3e-13 -2e-12z" c_shapetype="line" c_targetpad="" c_targetwire="" c_teardrop="" layerid="1" locked="0" net="" type="solid"/><path d="m4046.1 3442.3-0.20559-0.2172-0.15948-0.19358-0.12203-0.17749-0.093224-0.16894-0.073068-0.16792-0.06156-0.17444-0.058701-0.18849-0.06449-0.21007-0.078928-0.23919-2e-12 9e-13 -1.5578-0.030454 0.030454 1.5578 0.23919 0.078928 0.21007 0.06449 0.18849 0.058701 0.17444 0.06156 0.16792 0.073068 0.16894 0.093224 0.17749 0.12203 0.19358 0.15948 0.2172 0.20559 3e-13 2e-12z" c_shapetype="line" c_targetpad="" c_targetwire="" c_teardrop="" layerid="1" locked="0" net="" type="solid"/><path d="m4044.1 3447.5-0.062502 0.3094-0.055501 0.25956-0.052318 0.22139-0.052953 0.19488-0.057407 0.18004-0.06568 0.17687-0.07777 0.18536-0.093679 0.20552-0.11341 0.23735 4e-13 1e-12 1.08 1.1231 1.08-1.1231-0.11312-0.21334-0.11223-0.1851-0.10611-0.16724-0.094793-0.15976-0.07826-0.16266-0.056515-0.17594-0.029559-0.19959 0.0026079-0.23363 0.039986-0.27804z" c_shapetype="line" c_targetpad="" c_targetwire="" c_teardrop="" layerid="1" locked="0" net="" type="solid"/><path d="m4026.6 3458.3-0.04114-0.27559-0.0067977-0.23242 0.023143-0.1993 0.048683-0.17622 0.069822-0.1632 0.08656-0.16022 0.098896-0.16729 0.10683-0.1844 0.11037-0.21157-1.08-1.1231-1.08 1.1231 0.11569 0.23812 0.098624 0.20519 0.084606 0.18426 0.073636 0.17532 0.065714 0.17838 0.060839 0.19343 0.059011 0.22049 0.060232 0.25953 0.064499 0.31057v5e-13z" c_shapetype="line" c_targetpad="" c_targetwire="" c_teardrop="" layerid="1" locked="0" net="" type="solid"/><path d="m4024.2 3464.1 0.2172-0.20559 0.19358-0.15948 0.17749-0.12203 0.16894-0.093224 0.16792-0.073068 0.17444-0.06156 0.18849-0.058701 0.21007-0.06449 0.23919-0.078928-9e-13 -2e-12 0.030454-1.5578-1.5578 0.030454-0.078928 0.23919-0.06449 0.21007-0.058701 0.18849-0.06156 0.17444-0.073068 0.16792-0.093224 0.16894-0.12203 0.17749-0.15948 0.19358-0.20559 0.2172-2e-12 3e-13z" c_shapetype="line" c_targetpad="" c_targetwire="" c_teardrop="" layerid="1" locked="0" net="" type="solid"/><path d="m4024 3455.3 0.0097375-0.23927 0.029059-0.20098 0.04815-0.16972 0.06701-0.14549 0.08564-0.12829 0.10404-0.11811 0.12221-0.11496 0.14015-0.11883 0.15785-0.12973 1e-12 -1.8e-12 -0.51384-1.4709-1.4497 0.57094 0.012122 0.28834 0.021158 0.24641 0.0274 0.21853 0.030848 0.20469 0.031503 0.2049 0.029365 0.21914 0.024434 0.24744 0.016709 0.28977 0.0061903 0.34616v6e-13z" c_shapetype="line" c_targetpad="" c_targetwire="" c_teardrop="" layerid="1" locked="0" net="" type="solid"/></g><g c_etype="pinpart" c_height="6" c_origin="4039,3455.5" c_partid="part_pad" c_rotation="0" c_width="6" layerid="11" net=""><ellipse cx="4039" cy="3455.5" rx="3" ry="3" stroke-width="0" c_etype="pad_shell"/></g><g c_etype="pinpart" c_height="6" c_origin="4031,3449.5" c_partid="part_pad" c_rotation="0" c_width="6" layerid="11" net=""><ellipse cx="4031" cy="3449.5" rx="3" ry="3" stroke-width="0" c_etype="pad_shell"/></g><g c_etype="pinpart" c_origin="4044,3441" c_partid="part_via" c_rotation="undefined" layerid="11" net=""><circle cx="4044" cy="3441" r="1.2" stroke-width="0"/></g><g c_etype="pinpart" c_origin="4044.5,3450" c_partid="part_via" c_rotation="undefined" layerid="11" net=""><circle cx="4044.5" cy="3450" r="1.2" stroke-width="0"/></g><g c_etype="pinpart" c_origin="4024,3453" c_partid="part_via" c_rotation="undefined" layerid="11" net=""><circle cx="4024" cy="3453" r="1.2" stroke-width="0"/></g><g c_etype="pinpart" c_origin="4026,3456" c_partid="part_via" c_rotation="undefined" layerid="11" net=""><circle cx="4026" cy="3456" r="1.2" stroke-width="0"/></g><g c_etype="pinpart" c_origin="4025.5,3462" c_partid="part_via" c_rotation="undefined" layerid="11" net=""><circle cx="4025.5" cy="3462" r="1.2" stroke-width="0"/></g></g><path id="l" d="m4023 3467.5-0.1528-0.0039-0.1544-0.012-0.1558-0.0202-0.1501-0.0276-0.151-0.0356-0.1496-0.0436-0.1449-0.0506-0.1458-0.0595-0.1375-0.0644-0.1376-0.0735-0.1336-0.0807-0.1275-0.086-0.1235-0.0929-0.1202-0.1007-0.1124-0.1043-0.1081-0.1115-0.1017-0.1162-0.0959-0.1216-0.089-0.1261-0.0841-0.1329-0.0748-0.1329-0.0686-0.1383-0.0623-0.1438-0.0545-0.1456-0.0458-0.1453-0.0397-0.1528-0.0306-0.1493-0.0234-0.1526-0.0155-0.1569-0.0073-0.1519-7e-4 -0.0696v-23.998l0.0039-0.1528 0.012-0.1544 0.0202-0.1558 0.0276-0.1501 0.0356-0.151 0.0436-0.1496 0.0506-0.1449 0.0595-0.1458 0.0644-0.1375 0.0735-0.1376 0.0807-0.1336 0.086-0.1275 0.0929-0.1235 0.1007-0.1202 0.1043-0.1124 0.1115-0.1081 0.1162-0.1017 0.1216-0.0959 0.1261-0.089 0.1329-0.0841 0.1329-0.0748 0.1383-0.0686 0.1438-0.0623 0.1456-0.0545 0.1453-0.0458 0.1528-0.0397 0.1493-0.0306 0.1526-0.0234 0.1569-0.0155 0.1519-0.0073 0.0696-7e-4h23.998l0.1528 0.0039 0.1544 0.012 0.1558 0.0202 0.1501 0.0276 0.151 0.0356 0.1496 0.0436 0.1449 0.0506 0.1458 0.0595 0.1375 0.0644 0.1376 0.0735 0.1336 0.0807 0.1275 0.086 0.1235 0.0929 0.1202 0.1007 0.1124 0.1043 0.1081 0.1115 0.1017 0.1162 0.0959 0.1216 0.089 0.1261 0.0841 0.1329 0.0748 0.1329 0.0686 0.1383 0.0623 0.1438 0.0545 0.1456 0.0458 0.1453 0.0397 0.1528 0.0306 0.1493 0.0234 0.1526 0.0155 0.1569 0.0073 0.1519 7e-4 0.0696v23.998l-0.0039 0.1531-0.012 0.1544-0.0202 0.1558-0.0276 0.1501-0.0356 0.151-0.0436 0.1496-0.0506 0.1449-0.0595 0.1458-0.0644 0.1375-0.0735 0.1376-0.0807 0.1336-0.086 0.1275-0.0929 0.1235-0.1007 0.1202-0.1043 0.1124-0.1115 0.1081-0.1162 0.1017-0.1216 0.0959-0.1261 0.089-0.1329 0.0841-0.1329 0.0748-0.1383 0.0686-0.1438 0.0623-0.1456 0.0545-0.1453 0.0458-0.1528 0.0397-0.1493 0.0306-0.1526 0.0234-0.1569 0.0155-0.1519 0.0073-0.0696 7e-4z" display="none" fill="#0B3B0B" mask="url(#e)"/><g id="m" display="none" fill="#DCAA14" stroke="#DCAA14"><g c_etype="pinpart" c_height="6" c_origin="4039,3455.5" c_partid="part_pad" c_rotation="0" c_width="6" layerid="11" net=""><ellipse cx="4039" cy="3455.5" rx="3" ry="3" stroke-width="0" c_etype="pad_hole"/></g><g c_etype="pinpart" c_height="6" c_origin="4031,3449.5" c_partid="part_pad" c_rotation="0" c_width="6" layerid="11" net=""><ellipse cx="4031" cy="3449.5" rx="3" ry="3" stroke-width="0" c_etype="pad_hole"/></g><g c_etype="pinpart" c_origin="4044,3441" c_partid="part_via" c_rotation="undefined" layerid="11" net=""><circle cx="4044" cy="3441" r="1.2" stroke-width="0"/></g><g c_etype="pinpart" c_origin="4044.5,3450" c_partid="part_via" c_rotation="undefined" layerid="11" net=""><circle cx="4044.5" cy="3450" r="1.2" stroke-width="0"/></g><g c_etype="pinpart" c_origin="4024,3453" c_partid="part_via" c_rotation="undefined" layerid="11" net=""><circle cx="4024" cy="3453" r="1.2" stroke-width="0"/></g><g c_etype="pinpart" c_origin="4026,3456" c_partid="part_via" c_rotation="undefined" layerid="11" net=""><circle cx="4026" cy="3456" r="1.2" stroke-width="0"/></g><g c_etype="pinpart" c_origin="4025.5,3462" c_partid="part_via" c_rotation="undefined" layerid="11" net=""><circle cx="4025.5" cy="3462" r="1.2" stroke-width="0"/></g></g><g id="n" display="none" fill="#00BE00" mask="url(#d)" stroke="#00BE00"><g c_etype="pinpart" c_height="6" c_origin="4039,3455.5" c_partid="part_pad" c_rotation="0" c_width="6" layerid="11" net=""><ellipse cx="4039" cy="3455.5" rx="3" ry="3" stroke-width="0" c_etype="pad_hole"/></g><g c_etype="pinpart" c_height="6" c_origin="4031,3449.5" c_partid="part_pad" c_rotation="0" c_width="6" layerid="11" net=""><ellipse cx="4031" cy="3449.5" rx="3" ry="3" stroke-width="0" c_etype="pad_hole"/></g><g c_etype="pinpart" c_origin="4044,3441" c_partid="part_via" c_rotation="undefined" layerid="11" net=""><circle cx="4044" cy="3441" r="1.2" stroke-width="0"/></g><g c_etype="pinpart" c_origin="4044.5,3450" c_partid="part_via" c_rotation="undefined" layerid="11" net=""><circle cx="4044.5" cy="3450" r="1.2" stroke-width="0"/></g><g c_etype="pinpart" c_origin="4024,3453" c_partid="part_via" c_rotation="undefined" layerid="11" net=""><circle cx="4024" cy="3453" r="1.2" stroke-width="0"/></g><g c_etype="pinpart" c_origin="4026,3456" c_partid="part_via" c_rotation="undefined" layerid="11" net=""><circle cx="4026" cy="3456" r="1.2" stroke-width="0"/></g><g c_etype="pinpart" c_origin="4025.5,3462" c_partid="part_via" c_rotation="undefined" layerid="11" net=""><circle cx="4025.5" cy="3462" r="1.2" stroke-width="0"/></g></g></g></g></svg>
